<?xml version="1.0" encoding="UTF-8" standalone="no"?>
<!-- Created with Inkscape (http://www.inkscape.org/) -->

<svg
   xmlns:dc="http://purl.org/dc/elements/1.1/"
   xmlns:cc="http://creativecommons.org/ns#"
   xmlns:rdf="http://www.w3.org/1999/02/22-rdf-syntax-ns#"
   xmlns:svg="http://www.w3.org/2000/svg"
   xmlns="http://www.w3.org/2000/svg"
   xmlns:sodipodi="http://sodipodi.sourceforge.net/DTD/sodipodi-0.dtd"
   xmlns:inkscape="http://www.inkscape.org/namespaces/inkscape"
   width="744.09448819"
   height="1052.3622047"
   id="svg2"
   version="1.1"
   inkscape:version="0.47 r22583"
   sodipodi:docname="brains.svg">
  <defs
     id="defs4">
    <inkscape:perspective
       sodipodi:type="inkscape:persp3d"
       inkscape:vp_x="0 : 526.18109 : 1"
       inkscape:vp_y="0 : 1000 : 0"
       inkscape:vp_z="744.09448 : 526.18109 : 1"
       inkscape:persp3d-origin="372.04724 : 350.78739 : 1"
       id="perspective10" />
  </defs>
  <sodipodi:namedview
     id="base"
     pagecolor="#ffffff"
     bordercolor="#666666"
     borderopacity="1.0"
     inkscape:pageopacity="0.0"
     inkscape:pageshadow="2"
     inkscape:zoom="1.4"
     inkscape:cx="337.97233"
     inkscape:cy="615.74075"
     inkscape:document-units="px"
     inkscape:current-layer="layer1"
     showgrid="false"
     inkscape:window-width="784"
     inkscape:window-height="832"
     inkscape:window-x="0"
     inkscape:window-y="0"
     inkscape:window-maximized="0" />
  <metadata
     id="metadata7">
    <rdf:RDF>
      <cc:Work
         rdf:about="">
        <dc:format>image/svg+xml</dc:format>
        <dc:type
           rdf:resource="http://purl.org/dc/dcmitype/StillImage" />
        <dc:title></dc:title>
      </cc:Work>
    </rdf:RDF>
  </metadata>
  <g
     inkscape:label="Layer 1"
     inkscape:groupmode="layer"
     id="layer1">
    <path
       sodipodi:nodetypes="cssssssc"
       id="path3766"
       d="m 321.42858,298.07647 c 1.22743,16.54868 -29.44557,21.55884 -44.42929,36.27533 -17.42202,17.11132 -31.56486,20.15324 -61.285,20.15324 -29.72014,0 -47.75161,-9.88438 -65.57071,-26.5818 -14.34777,-13.44461 -31.57215,-31.55752 -31.57215,-50.56106 0,-22.59039 15.08479,-36.48428 34.5709,-50.59269 17.26412,-12.49964 37.3686,-26.55017 62.57196,-26.55017 53.65052,0 105.71429,55.25233 105.71429,97.85715 z"
       style="fill:#ffa5ff;fill-opacity:1;fill-rule:evenodd;stroke:#000000;stroke-width:5;stroke-linecap:butt;stroke-linejoin:miter;stroke-miterlimit:4;stroke-opacity:1;stroke-dasharray:none;stroke-dashoffset:0" />
    <path
       sodipodi:nodetypes="csc"
       id="path3768"
       d="m 169.28572,249.50504 c 1.1812,-5.6837 2.59414,-14.1004 8.01235,-14.20687 6.14204,-0.12068 12.85121,-8.1834 20.55908,-8.65027"
       style="fill:none;stroke:#000000;stroke-width:5;stroke-linecap:butt;stroke-linejoin:miter;stroke-miterlimit:4;stroke-opacity:1;stroke-dasharray:none" />
    <path
       sodipodi:nodetypes="csssc"
       id="path3770"
       d="m 235.54677,205.26165 c -8.11514,2.7102 -8.84352,12.00032 -17.91042,17.00449 -9.28789,5.12613 -23.82114,13.07893 -22.17032,19.23391 3.02802,11.28988 2.60651,28.10444 -4.42046,34.03538 -9.10541,7.68519 -6.26205,23.37001 -1.48388,36.53472"
       style="fill:none;stroke:#000000;stroke-width:5;stroke-linecap:butt;stroke-linejoin:miter;stroke-miterlimit:4;stroke-opacity:1;stroke-dasharray:none" />
    <path
       sodipodi:nodetypes="csc"
       id="path3772"
       d="m 180.27425,269.79659 c -4.96946,-0.0169 -5.20548,6.85174 -7.87587,8.87277 -5.21618,3.94773 -9.66535,5.48809 -6.39073,13.78035"
       style="fill:none;stroke:#000000;stroke-width:5;stroke-linecap:butt;stroke-linejoin:miter;stroke-miterlimit:4;stroke-opacity:1;stroke-dasharray:none" />
    <path
       sodipodi:nodetypes="csc"
       id="path3774"
       d="m 147.14287,277.36216 c -3.38871,-8.40854 -5.09894,-22.60049 3.30813,-24.46899 5.40169,-1.20054 4.09556,-4.99199 6.69187,-6.95958"
       style="fill:none;stroke:#000000;stroke-width:5;stroke-linecap:butt;stroke-linejoin:miter;stroke-miterlimit:4;stroke-opacity:1;stroke-dasharray:none" />
    <path
       sodipodi:nodetypes="csc"
       id="path3776"
       d="m 177.85715,320.21931 c -1.69783,-1.50313 -4.88683,-3.25685 -3.9486,-5.16642 2.31811,-4.71804 -2.38781,-12.09939 0.37717,-17.69072"
       style="fill:none;stroke:#000000;stroke-width:5;stroke-linecap:butt;stroke-linejoin:miter;stroke-miterlimit:4;stroke-opacity:1;stroke-dasharray:none" />
    <path
       sodipodi:nodetypes="cc"
       id="path3778"
       d="m 153.57143,314.50504 c -0.80757,-5.62471 1.38971,-19.96476 8.57143,-15"
       style="fill:none;stroke:#000000;stroke-width:5;stroke-linecap:butt;stroke-linejoin:miter;stroke-miterlimit:4;stroke-opacity:1;stroke-dasharray:none" />
    <path
       sodipodi:nodetypes="csc"
       id="path3780"
       d="m 207.14287,300.9336 c 4.25071,0.29211 8.48313,8.96331 10.43434,5.466 1.91391,-3.43044 3.25258,5.10198 3.85137,8.10543"
       style="fill:none;stroke:#000000;stroke-width:5;stroke-linecap:butt;stroke-linejoin:miter;stroke-miterlimit:4;stroke-opacity:1;stroke-dasharray:none" />
    <path
       sodipodi:nodetypes="csc"
       id="path3782"
       d="m 207.83096,284.19132 c 4.99655,-3.6175 12.0936,-7.40434 17.10877,-10.23331 8.76459,-4.94396 15.67218,7.50302 22.20527,12.7725"
       style="fill:none;stroke:#000000;stroke-width:5;stroke-linecap:butt;stroke-linejoin:miter;stroke-miterlimit:4;stroke-opacity:1;stroke-dasharray:none" />
    <path
       sodipodi:nodetypes="csc"
       id="path3784"
       d="m 222.85715,250.21931 c 6.16807,-0.27799 13.44682,0.37697 13.93124,4.54385 1.15401,9.92656 6.65993,7.17447 8.21162,11.88472"
       style="fill:none;stroke:#000000;stroke-width:5;stroke-linecap:butt;stroke-linejoin:miter;stroke-miterlimit:4;stroke-opacity:1;stroke-dasharray:none" />
    <path
       sodipodi:nodetypes="csc"
       id="path3786"
       d="m 245,236.6479 c 7.54705,-0.29661 6.43816,2.79901 11.48115,7.80416 3.55447,3.52779 14.11893,8.00422 15.66171,12.91012"
       style="fill:none;stroke:#000000;stroke-width:5;stroke-linecap:butt;stroke-linejoin:miter;stroke-miterlimit:4;stroke-opacity:1;stroke-dasharray:none" />
    <path
       sodipodi:nodetypes="csc"
       id="path3788"
       d="m 256.42859,285.9336 c 2.43128,6.72563 16.52159,17.29399 5.53523,20.09711 -7.5311,1.92153 -9.32449,11.21969 -15.53523,16.33147"
       style="fill:none;stroke:#000000;stroke-width:5;stroke-linecap:butt;stroke-linejoin:miter;stroke-miterlimit:4;stroke-opacity:1;stroke-dasharray:none" />
    <path
       sodipodi:nodetypes="csc"
       id="path3790"
       d="m 281.73963,268.03637 c 7.07245,5.21955 1.91869,14.88518 12.61201,20.86671 6.12527,3.4263 0.42241,14.26671 -2.19389,21.00448"
       style="fill:none;stroke:#000000;stroke-width:5;stroke-linecap:butt;stroke-linejoin:miter;stroke-miterlimit:4;stroke-opacity:1;stroke-dasharray:none" />
    <path
       sodipodi:nodetypes="csc"
       id="path3792"
       d="m 239.28571,214.50504 c 5.05108,-1.90155 7.46972,0.12931 12.00341,2.41898 3.12299,1.57721 8.75099,2.52651 10.85373,5.43817"
       style="fill:none;stroke:#000000;stroke-width:5;stroke-linecap:butt;stroke-linejoin:miter;stroke-miterlimit:4;stroke-opacity:1;stroke-dasharray:none" />
    <path
       id="path3794"
       d="m 217.85715,335.9336 c 8.14366,-1.14343 15.44196,4.12659 18.57143,11.42857"
       style="fill:none;stroke:#000000;stroke-width:5;stroke-linecap:butt;stroke-linejoin:miter;stroke-miterlimit:4;stroke-opacity:1;stroke-dasharray:none" />
    <g
       id="g3796"
       transform="matrix(0.1539254,0,0,0.1539254,242.16096,316.21247)"
       inkscape:export-filename="D:\Repos\ruby\gubby-gosu\examples\brains\assets\brain.png"
       inkscape:export-xdpi="90"
       inkscape:export-ydpi="90">
      <path
         sodipodi:nodetypes="cssssssc"
         id="path2816"
         d="m 323.57143,503.07647 c 1.22743,16.54868 -29.44557,21.55884 -44.42929,36.27533 -17.42202,17.11132 -31.56486,20.15324 -61.285,20.15324 -29.72014,0 -47.75161,-9.88438 -65.57071,-26.5818 -14.34777,-13.44461 -31.57215,-31.55752 -31.57215,-50.56106 0,-22.59039 15.08479,-36.48428 34.5709,-50.59269 17.26412,-12.49964 37.3686,-26.55017 62.57196,-26.55017 53.65052,0 105.71429,55.25233 105.71429,97.85715 z"
         style="fill:#ffa5ff;fill-opacity:1;fill-rule:evenodd;stroke:#000000;stroke-width:5;stroke-linecap:butt;stroke-linejoin:miter;stroke-miterlimit:4;stroke-opacity:1;stroke-dasharray:none;stroke-dashoffset:0" />
      <path
         sodipodi:nodetypes="csc"
         id="path2819"
         d="m 171.42857,454.50504 c 1.1812,-5.6837 2.59414,-14.1004 8.01235,-14.20687 6.14204,-0.12068 12.85121,-8.1834 20.55908,-8.65027"
         style="fill:none;stroke:#000000;stroke-width:5;stroke-linecap:butt;stroke-linejoin:miter;stroke-miterlimit:4;stroke-opacity:1;stroke-dasharray:none" />
      <path
         sodipodi:nodetypes="csssc"
         id="path2821"
         d="m 237.68962,410.26165 c -8.11514,2.7102 -8.84352,12.00032 -17.91042,17.00449 -9.28789,5.12613 -23.82114,13.07893 -22.17032,19.23391 3.02802,11.28988 2.60651,28.10444 -4.42046,34.03538 -9.10541,7.68519 -6.26205,23.37001 -1.48388,36.53472"
         style="fill:none;stroke:#000000;stroke-width:5;stroke-linecap:butt;stroke-linejoin:miter;stroke-miterlimit:4;stroke-opacity:1;stroke-dasharray:none" />
      <path
         sodipodi:nodetypes="csc"
         id="path2823"
         d="m 182.4171,474.79659 c -4.96946,-0.0169 -5.20548,6.85174 -7.87587,8.87277 -5.21618,3.94773 -9.66535,5.48809 -6.39073,13.78035"
         style="fill:none;stroke:#000000;stroke-width:5;stroke-linecap:butt;stroke-linejoin:miter;stroke-miterlimit:4;stroke-opacity:1;stroke-dasharray:none" />
      <path
         sodipodi:nodetypes="csc"
         id="path2825"
         d="m 149.28572,482.36216 c -3.38871,-8.40854 -5.09894,-22.60049 3.30813,-24.46899 5.40169,-1.20054 4.09556,-4.99199 6.69187,-6.95958"
         style="fill:none;stroke:#000000;stroke-width:5;stroke-linecap:butt;stroke-linejoin:miter;stroke-miterlimit:4;stroke-opacity:1;stroke-dasharray:none" />
      <path
         sodipodi:nodetypes="csc"
         id="path2827"
         d="m 180,525.21931 c -1.69783,-1.50313 -4.88683,-3.25685 -3.9486,-5.16642 2.31811,-4.71804 -2.38781,-12.09939 0.37717,-17.69072"
         style="fill:none;stroke:#000000;stroke-width:5;stroke-linecap:butt;stroke-linejoin:miter;stroke-miterlimit:4;stroke-opacity:1;stroke-dasharray:none" />
      <path
         sodipodi:nodetypes="cc"
         id="path2829"
         d="m 155.71428,519.50504 c -0.80757,-5.62471 1.38971,-19.96476 8.57143,-15"
         style="fill:none;stroke:#000000;stroke-width:5;stroke-linecap:butt;stroke-linejoin:miter;stroke-miterlimit:4;stroke-opacity:1;stroke-dasharray:none" />
      <path
         sodipodi:nodetypes="csc"
         id="path2831"
         d="m 209.28572,505.9336 c 4.25071,0.29211 8.48313,8.96331 10.43434,5.466 1.91391,-3.43044 3.25258,5.10198 3.85137,8.10543"
         style="fill:none;stroke:#000000;stroke-width:5;stroke-linecap:butt;stroke-linejoin:miter;stroke-miterlimit:4;stroke-opacity:1;stroke-dasharray:none" />
      <path
         sodipodi:nodetypes="csc"
         id="path2833"
         d="m 209.97381,489.19132 c 4.99655,-3.6175 12.0936,-7.40434 17.10877,-10.23331 8.76459,-4.94396 15.67218,7.50302 22.20527,12.7725"
         style="fill:none;stroke:#000000;stroke-width:5;stroke-linecap:butt;stroke-linejoin:miter;stroke-miterlimit:4;stroke-opacity:1;stroke-dasharray:none" />
      <path
         sodipodi:nodetypes="csc"
         id="path2835"
         d="m 225,455.21931 c 6.16807,-0.27799 13.44682,0.37697 13.93124,4.54385 1.15401,9.92656 6.65993,7.17447 8.21162,11.88472"
         style="fill:none;stroke:#000000;stroke-width:5;stroke-linecap:butt;stroke-linejoin:miter;stroke-miterlimit:4;stroke-opacity:1;stroke-dasharray:none" />
      <path
         sodipodi:nodetypes="csc"
         id="path2837"
         d="m 247.14285,441.6479 c 7.54705,-0.29661 6.43816,2.79901 11.48115,7.80416 3.55447,3.52779 14.11893,8.00422 15.66171,12.91012"
         style="fill:none;stroke:#000000;stroke-width:5;stroke-linecap:butt;stroke-linejoin:miter;stroke-miterlimit:4;stroke-opacity:1;stroke-dasharray:none" />
      <path
         sodipodi:nodetypes="csc"
         id="path2839"
         d="m 258.57144,490.9336 c 2.43128,6.72563 16.52159,17.29399 5.53523,20.09711 -7.5311,1.92153 -9.32449,11.21969 -15.53523,16.33147"
         style="fill:none;stroke:#000000;stroke-width:5;stroke-linecap:butt;stroke-linejoin:miter;stroke-miterlimit:4;stroke-opacity:1;stroke-dasharray:none" />
      <path
         sodipodi:nodetypes="csc"
         id="path2841"
         d="m 283.88248,473.03637 c 7.07245,5.21955 1.91869,14.88518 12.61201,20.86671 6.12527,3.4263 0.42241,14.26671 -2.19389,21.00448"
         style="fill:none;stroke:#000000;stroke-width:5;stroke-linecap:butt;stroke-linejoin:miter;stroke-miterlimit:4;stroke-opacity:1;stroke-dasharray:none" />
      <path
         sodipodi:nodetypes="csc"
         id="path2843"
         d="m 241.42856,419.50504 c 5.05108,-1.90155 7.46972,0.12931 12.00341,2.41898 3.12299,1.57721 8.75099,2.52651 10.85373,5.43817"
         style="fill:none;stroke:#000000;stroke-width:5;stroke-linecap:butt;stroke-linejoin:miter;stroke-miterlimit:4;stroke-opacity:1;stroke-dasharray:none" />
      <path
         id="path2845"
         d="m 220,540.9336 c 8.14366,-1.14343 15.44196,4.12659 18.57143,11.42857"
         style="fill:none;stroke:#000000;stroke-width:5;stroke-linecap:butt;stroke-linejoin:miter;stroke-miterlimit:4;stroke-opacity:1;stroke-dasharray:none" />
    </g>
  </g>
</svg>
