<?xml version="1.0" encoding="UTF-8" standalone="no"?>
<!-- Created with Inkscape (http://www.inkscape.org/) -->

<svg
   xmlns:dc="http://purl.org/dc/elements/1.1/"
   xmlns:cc="http://creativecommons.org/ns#"
   xmlns:rdf="http://www.w3.org/1999/02/22-rdf-syntax-ns#"
   xmlns:svg="http://www.w3.org/2000/svg"
   xmlns="http://www.w3.org/2000/svg"
   xmlns:sodipodi="http://sodipodi.sourceforge.net/DTD/sodipodi-0.dtd"
   xmlns:inkscape="http://www.inkscape.org/namespaces/inkscape"
   width="744.09448819"
   height="1052.3622047"
   id="svg3813"
   version="1.1"
   inkscape:version="0.47 r22583"
   sodipodi:docname="zombie.svg">
  <defs
     id="defs3815">
    <inkscape:path-effect
       effect="skeletal"
       id="path-effect4394"
       is_visible="true"
       pattern="M 0,0 1,0"
       copytype="single_stretched"
       prop_scale="1"
       scale_y_rel="false"
       spacing="0"
       normal_offset="0"
       tang_offset="0"
       prop_units="false"
       vertical_pattern="false"
       fuse_tolerance="0" />
    <inkscape:path-effect
       effect="skeletal"
       id="path-effect4390"
       is_visible="true"
       pattern="m -58.588851,-10.101525 1,0"
       copytype="single_stretched"
       prop_scale="1"
       scale_y_rel="false"
       spacing="0"
       normal_offset="0"
       tang_offset="0"
       prop_units="false"
       vertical_pattern="false"
       fuse_tolerance="0" />
    <inkscape:perspective
       sodipodi:type="inkscape:persp3d"
       inkscape:vp_x="0 : 526.18109 : 1"
       inkscape:vp_y="0 : 1000 : 0"
       inkscape:vp_z="744.09448 : 526.18109 : 1"
       inkscape:persp3d-origin="372.04724 : 350.78739 : 1"
       id="perspective3821" />
  </defs>
  <sodipodi:namedview
     id="base"
     pagecolor="#ffffff"
     bordercolor="#666666"
     borderopacity="1.0"
     inkscape:pageopacity="0.0"
     inkscape:pageshadow="2"
     inkscape:zoom="2.8"
     inkscape:cx="319.54957"
     inkscape:cy="736.69945"
     inkscape:document-units="px"
     inkscape:current-layer="layer1"
     showgrid="false"
     inkscape:window-width="1600"
     inkscape:window-height="848"
     inkscape:window-x="-8"
     inkscape:window-y="-8"
     inkscape:window-maximized="0" />
  <metadata
     id="metadata3818">
    <rdf:RDF>
      <cc:Work
         rdf:about="">
        <dc:format>image/svg+xml</dc:format>
        <dc:type
           rdf:resource="http://purl.org/dc/dcmitype/StillImage" />
        <dc:title></dc:title>
      </cc:Work>
    </rdf:RDF>
  </metadata>
  <g
     inkscape:label="Layer 1"
     inkscape:groupmode="layer"
     id="layer1">
    <path
       style="fill:none;stroke:#000000;stroke-width:5;stroke-linecap:butt;stroke-linejoin:miter;stroke-miterlimit:4;stroke-opacity:1;stroke-dashoffset:0"
       d="m -41.120474,-60.825924 c 0,65.9946311 -50.10725,119.493801 -111.917646,119.493801 -15.64032,0 -89.2828,-9.63899 -99.3445,-23.31729 -9.49001,-12.90118 88.25886,13.56149 122.51255,-4.48614 20.87567,-10.99901 -13.58016,-67.738268 -18.13371,-75.232988 -11.35978,-18.697108 -116.95199,7.489019 -116.95199,-16.457383 0,-7.464876 10.3066,-32.231404 15.78676,-23.737124 9.80762,15.201797 46.5025,16.660619 57.29322,1.873901 14.06188,-19.269243 13.46044,-49.050193 -6.22733,-62.371273 -16.63449,-11.25521 33.81441,-35.2593 45.065,-35.2593 61.810396,0 111.917646,53.4992 111.917646,119.493796 z"
       id="path4483"
       sodipodi:nodetypes="csssssssssc" />
    <path
       style="fill:#ac9d93;fill-opacity:1;stroke:#000000;stroke-width:5;stroke-linecap:butt;stroke-linejoin:miter;stroke-miterlimit:4;stroke-opacity:1;stroke-dashoffset:0"
       d="m -466.66567,-80.08252 c 0,65.99463 -50.10725,119.4938 -111.91765,119.4938 -15.64032,0 -89.2828,-9.63899 -99.3445,-23.31729 -9.49001,-12.9011799 88.25886,13.56149 122.51255,-4.48614 20.87567,-10.99900988 -13.58016,-67.73827 -18.13371,-75.23299 -11.35978,-18.6971 -116.95199,7.48902 -116.95199,-16.45738 0,-7.46487 10.3066,-32.2314 15.78676,-23.73712 9.80762,15.20179 46.5025,16.66062 57.29322,1.8739 14.06188,-19.26924 13.46044,-49.05019 -6.22733,-62.37127 -16.63449,-11.25521 33.81441,-35.2593 45.065,-35.2593 61.8104,0 111.91765,53.4992 111.91765,119.49379 z"
       id="path3647"
       sodipodi:nodetypes="csssssssssc" />
    <path
       style="fill:#ac9d93;fill-opacity:1;stroke:#000000;stroke-width:5;stroke-linecap:butt;stroke-linejoin:miter;stroke-miterlimit:4;stroke-opacity:1;stroke-dashoffset:0"
       d="m -1086.6657,-88.653944 c 0,65.99463 -50.1072,119.4938 -111.9176,119.4938 -15.6403,0 -89.2828,-9.63899 -99.3445,-23.3172897 -9.49,-12.90118 88.2588,13.5614897 122.5125,-4.48614 20.8757,-10.99901 -13.5801,-67.7382703 -18.1337,-75.2329903 -11.3598,-18.6971 -116.952,7.48902 -116.952,-16.45738 0,-7.46487 10.3066,-32.231396 15.7868,-23.737116 9.8076,15.201786 46.5025,16.660616 57.2932,1.8739 14.0619,-19.26924 13.4604,-49.05019 -6.2273,-62.37127 -16.6345,-11.25521 33.8144,-35.25931 45.065,-35.25931 61.8104,0 111.9176,53.49921 111.9176,119.493796 z"
       id="path3724"
       sodipodi:nodetypes="csssssssssc" />
    <path
       style="fill:none;stroke:#000000;stroke-width:5;stroke-linecap:butt;stroke-linejoin:miter;stroke-miterlimit:4;stroke-opacity:1;stroke-dashoffset:0"
       d="m -180.81731,-112.84877 c 0,22.036728 -17.63817,39.901018 -39.39595,39.901018 -21.75778,0 -39.39595,-17.86429 -39.39595,-39.901018 0,-22.03673 17.63817,-39.90102 39.39595,-39.90102 21.75778,0 39.39595,17.86429 39.39595,39.90102 z"
       id="path4485" />
    <path
       style="fill:#ffffff;stroke:#000000;stroke-width:5;stroke-linecap:butt;stroke-linejoin:miter;stroke-miterlimit:4;stroke-opacity:1;stroke-dashoffset:0"
       d="m -606.36251,-132.10536 c 0,22.03672 -17.63817,39.90101 -39.39595,39.90101 -21.75778,0 -39.39595,-17.86429 -39.39595,-39.90101 0,-22.03673 17.63817,-39.90102 39.39595,-39.90102 21.75778,0 39.39595,17.86429 39.39595,39.90102 z"
       id="path3649" />
    <path
       style="fill:#ffffff;stroke:#000000;stroke-width:5;stroke-linecap:butt;stroke-linejoin:miter;stroke-miterlimit:4;stroke-opacity:1;stroke-dashoffset:0"
       d="m -1226.3625,-140.67678 c 0,22.03672 -17.6382,39.90101 -39.396,39.90101 -21.7577,0 -39.3959,-17.86429 -39.3959,-39.90101 0,-22.03673 17.6382,-39.90102 39.3959,-39.90102 21.7578,0 39.396,17.86429 39.396,39.90102 z"
       id="path3726" />
    <path
       style="fill:none;stroke:#000000;stroke-width:5;stroke-linecap:butt;stroke-linejoin:miter;stroke-miterlimit:4;stroke-opacity:1;stroke-dashoffset:0"
       d="m -84.852824,-100.22186 c 0,17.294638 -14.24621,31.314728 -31.819796,31.314728 -17.5736,0 -31.81981,-14.02009 -31.81981,-31.314728 0,-17.29465 14.24621,-31.31473 31.81981,-31.31473 17.573586,0 31.819796,14.02008 31.819796,31.31473 z"
       id="path4487" />
    <path
       style="fill:#ffffff;stroke:#000000;stroke-width:5;stroke-linecap:butt;stroke-linejoin:miter;stroke-miterlimit:4;stroke-opacity:1;stroke-dashoffset:0"
       d="m -510.39802,-119.47845 c 0,17.29463 -14.24621,31.31472 -31.8198,31.31472 -17.5736,0 -31.81981,-14.02009 -31.81981,-31.31472 0,-17.29465 14.24621,-31.31473 31.81981,-31.31473 17.57359,0 31.8198,14.02008 31.8198,31.31473 z"
       id="path3651" />
    <path
       style="fill:#ffffff;stroke:#000000;stroke-width:5;stroke-linecap:butt;stroke-linejoin:miter;stroke-miterlimit:4;stroke-opacity:1;stroke-dashoffset:0"
       d="m -1130.398,-128.04987 c 0,17.29463 -14.2462,31.314716 -31.8198,31.314716 -17.5736,0 -31.8198,-14.020086 -31.8198,-31.314716 0,-17.29465 14.2462,-31.31473 31.8198,-31.31473 17.5736,0 31.8198,14.02008 31.8198,31.31473 z"
       id="path3728" />
    <path
       transform="translate(-97.984804,-320.21835)"
       d="m -105.05587,186.15637 a 10.606602,11.616755 0 1 1 -21.2132,0 10.606602,11.616755 0 1 1 21.2132,0 z"
       sodipodi:ry="11.616755"
       sodipodi:rx="10.606602"
       sodipodi:cy="186.15637"
       sodipodi:cx="-115.66247"
       id="path4489"
       style="fill:none;stroke:#000000;stroke-width:5;stroke-linecap:butt;stroke-linejoin:miter;stroke-miterlimit:4;stroke-opacity:1;stroke-dasharray:none;stroke-dashoffset:0"
       sodipodi:type="arc" />
    <path
       transform="translate(-523.53,-339.47495)"
       d="m -105.05587,186.15637 a 10.606602,11.616755 0 1 1 -21.2132,0 10.606602,11.616755 0 1 1 21.2132,0 z"
       sodipodi:ry="11.616755"
       sodipodi:rx="10.606602"
       sodipodi:cy="186.15637"
       sodipodi:cx="-115.66247"
       id="path3653"
       style="fill:#008080;stroke:#000000;stroke-width:5;stroke-linecap:butt;stroke-linejoin:miter;stroke-miterlimit:4;stroke-opacity:1;stroke-dasharray:none;stroke-dashoffset:0"
       sodipodi:type="arc" />
    <path
       transform="translate(-1143.53,-348.04638)"
       d="m -105.05587,186.15637 a 10.606602,11.616755 0 1 1 -21.2132,0 10.606602,11.616755 0 1 1 21.2132,0 z"
       sodipodi:ry="11.616755"
       sodipodi:rx="10.606602"
       sodipodi:cy="186.15637"
       sodipodi:cx="-115.66247"
       id="path3730"
       style="fill:#008080;stroke:#000000;stroke-width:5;stroke-linecap:butt;stroke-linejoin:miter;stroke-miterlimit:4;stroke-opacity:1;stroke-dasharray:none;stroke-dashoffset:0"
       sodipodi:type="arc" />
    <path
       sodipodi:type="arc"
       style="fill:none;stroke:#000000;stroke-width:5;stroke-linecap:butt;stroke-linejoin:miter;stroke-miterlimit:4;stroke-opacity:1;stroke-dasharray:none;stroke-dashoffset:0"
       id="path4491"
       sodipodi:cx="-115.66247"
       sodipodi:cy="186.15637"
       sodipodi:rx="10.606602"
       sodipodi:ry="11.616755"
       d="m -105.05587,186.15637 a 10.606602,11.616755 0 1 1 -21.2132,0 10.606602,11.616755 0 1 1 21.2132,0 z"
       transform="translate(-9.0913843,-286.88332)" />
    <path
       sodipodi:type="arc"
       style="fill:#008080;stroke:#000000;stroke-width:5;stroke-linecap:butt;stroke-linejoin:miter;stroke-miterlimit:4;stroke-opacity:1;stroke-dasharray:none;stroke-dashoffset:0"
       id="path3655"
       sodipodi:cx="-115.66247"
       sodipodi:cy="186.15637"
       sodipodi:rx="10.606602"
       sodipodi:ry="11.616755"
       d="m -105.05587,186.15637 a 10.606602,11.616755 0 1 1 -21.2132,0 10.606602,11.616755 0 1 1 21.2132,0 z"
       transform="translate(-434.63658,-306.13992)" />
    <path
       sodipodi:type="arc"
       style="fill:#008080;stroke:#000000;stroke-width:5;stroke-linecap:butt;stroke-linejoin:miter;stroke-miterlimit:4;stroke-opacity:1;stroke-dasharray:none;stroke-dashoffset:0"
       id="path3732"
       sodipodi:cx="-115.66247"
       sodipodi:cy="186.15637"
       sodipodi:rx="10.606602"
       sodipodi:ry="11.616755"
       d="m -105.05587,186.15637 a 10.606602,11.616755 0 1 1 -21.2132,0 10.606602,11.616755 0 1 1 21.2132,0 z"
       transform="translate(-1054.6366,-314.71135)" />
    <path
       d="m -204.05082,140.19443 a 5.0507627,5.0507627 0 1 1 -10.10152,0 5.0507627,5.0507627 0 1 1 10.10152,0 z"
       sodipodi:ry="5.0507627"
       sodipodi:rx="5.0507627"
       sodipodi:cy="140.19443"
       sodipodi:cx="-209.10158"
       id="path4493"
       style="fill:none;stroke:#000000;stroke-width:5;stroke-linecap:butt;stroke-linejoin:miter;stroke-miterlimit:4;stroke-opacity:1;stroke-dasharray:none;stroke-dashoffset:0"
       sodipodi:type="arc"
       transform="translate(29.294416,-216.17264)" />
    <path
       d="m -204.05082,140.19443 a 5.0507627,5.0507627 0 1 1 -10.10152,0 5.0507627,5.0507627 0 1 1 10.10152,0 z"
       sodipodi:ry="5.0507627"
       sodipodi:rx="5.0507627"
       sodipodi:cy="140.19443"
       sodipodi:cx="-209.10158"
       id="path3657"
       style="fill:#1a1a1a;stroke:#000000;stroke-width:5;stroke-linecap:butt;stroke-linejoin:miter;stroke-miterlimit:4;stroke-opacity:1;stroke-dasharray:none;stroke-dashoffset:0"
       sodipodi:type="arc"
       transform="translate(-396.25078,-235.42923)" />
    <path
       d="m -204.05082,140.19443 a 5.0507627,5.0507627 0 1 1 -10.10152,0 5.0507627,5.0507627 0 1 1 10.10152,0 z"
       sodipodi:ry="5.0507627"
       sodipodi:rx="5.0507627"
       sodipodi:cy="140.19443"
       sodipodi:cx="-209.10158"
       id="path3734"
       style="fill:#1a1a1a;stroke:#000000;stroke-width:5;stroke-linecap:butt;stroke-linejoin:miter;stroke-miterlimit:4;stroke-opacity:1;stroke-dasharray:none;stroke-dashoffset:0"
       sodipodi:type="arc"
       transform="translate(-1016.2508,-244.00066)" />
    <path
       d="m -204.05082,140.19443 a 5.0507627,5.0507627 0 1 1 -10.10152,0 5.0507627,5.0507627 0 1 1 10.10152,0 z"
       sodipodi:ry="5.0507627"
       sodipodi:rx="5.0507627"
       sodipodi:cy="140.19443"
       sodipodi:cx="-209.10158"
       id="path4495"
       style="fill:none;stroke:#000000;stroke-width:5;stroke-linecap:butt;stroke-linejoin:miter;stroke-miterlimit:4;stroke-opacity:1;stroke-dasharray:none;stroke-dashoffset:0"
       sodipodi:type="arc"
       transform="translate(46.467016,-213.14219)" />
    <path
       d="m -204.05082,140.19443 a 5.0507627,5.0507627 0 1 1 -10.10152,0 5.0507627,5.0507627 0 1 1 10.10152,0 z"
       sodipodi:ry="5.0507627"
       sodipodi:rx="5.0507627"
       sodipodi:cy="140.19443"
       sodipodi:cx="-209.10158"
       id="path3659"
       style="fill:#1a1a1a;stroke:#000000;stroke-width:5;stroke-linecap:butt;stroke-linejoin:miter;stroke-miterlimit:4;stroke-opacity:1;stroke-dasharray:none;stroke-dashoffset:0"
       sodipodi:type="arc"
       transform="translate(-379.07818,-232.39878)" />
    <path
       d="m -204.05082,140.19443 a 5.0507627,5.0507627 0 1 1 -10.10152,0 5.0507627,5.0507627 0 1 1 10.10152,0 z"
       sodipodi:ry="5.0507627"
       sodipodi:rx="5.0507627"
       sodipodi:cy="140.19443"
       sodipodi:cx="-209.10158"
       id="path3736"
       style="fill:#1a1a1a;stroke:#000000;stroke-width:5;stroke-linecap:butt;stroke-linejoin:miter;stroke-miterlimit:4;stroke-opacity:1;stroke-dasharray:none;stroke-dashoffset:0"
       sodipodi:type="arc"
       transform="translate(-999.07818,-240.97021)" />
    <path
       sodipodi:type="arc"
       style="fill:none;stroke:#000000;stroke-width:5;stroke-linecap:butt;stroke-linejoin:miter;stroke-miterlimit:4;stroke-opacity:1;stroke-dasharray:none;stroke-dashoffset:0"
       id="path4352"
       sodipodi:cx="-209.10158"
       sodipodi:cy="140.19443"
       sodipodi:rx="5.0507627"
       sodipodi:ry="5.0507627"
       d="m -204.05082,140.19443 a 5.0507627,5.0507627 0 1 1 -10.10152,0 5.0507627,5.0507627 0 1 1 10.10152,0 z"
       transform="translate(8.0812204,11.111678)" />
    <rect
       ry="0"
       y="215.42171"
       x="-174.38551"
       height="18.389565"
       width="15.359107"
       id="rect4360"
       style="fill:none;stroke:#000000;stroke-width:2.77287626;stroke-linecap:butt;stroke-linejoin:miter;stroke-miterlimit:4;stroke-opacity:1;stroke-dasharray:none;stroke-dashoffset:0" />
    <path
       style="fill:none;stroke:#000000;stroke-width:2.77287626;stroke-linecap:butt;stroke-linejoin:miter;stroke-miterlimit:4;stroke-opacity:1;stroke-dashoffset:0"
       d="m -232.18037,-46.902802 14.77939,-4.17989 5.00462,17.695484 -14.7794,4.179889 -1.76832,-6.252492 3.55897,-3.470743 -4.58837,-0.169041 -2.20689,-7.803207 z"
       id="path4497"
       sodipodi:nodetypes="cccccccc" />
    <path
       style="fill:#deaa87;stroke:#000000;stroke-width:2.77287626;stroke-linecap:butt;stroke-linejoin:miter;stroke-miterlimit:4;stroke-opacity:1;stroke-dashoffset:0"
       d="m -657.72557,-66.1594 14.77939,-4.17989 5.00462,17.69549 -14.7794,4.17989 -1.76832,-6.2525 3.55897,-3.47074 -4.58837,-0.16904 -2.20689,-7.80321 z"
       id="path3661"
       sodipodi:nodetypes="cccccccc" />
    <path
       style="fill:#deaa87;stroke:#000000;stroke-width:2.77287626;stroke-linecap:butt;stroke-linejoin:miter;stroke-miterlimit:4;stroke-opacity:1;stroke-dashoffset:0"
       d="m -1277.7256,-74.730824 14.7794,-4.17989 5.0046,17.69549 -14.7794,4.17989 -1.7683,-6.2525 3.559,-3.47074 -4.5884,-0.16904 -2.2069,-7.80321 z"
       id="path3738"
       sodipodi:nodetypes="cccccccc" />
    <path
       style="fill:none;stroke:#000000;stroke-width:2.77287626;stroke-linecap:butt;stroke-linejoin:miter;stroke-miterlimit:4;stroke-opacity:1;stroke-dashoffset:0"
       d="m -258.31845,15.906537 14.47186,-5.14465 5.66732,5.53883 0.4924,11.78842 -14.47186,5.14465 -6.15972,-17.32725 z"
       id="path4499"
       sodipodi:nodetypes="cccccc" />
    <path
       style="fill:#deaa87;stroke:#000000;stroke-width:2.77287626;stroke-linecap:butt;stroke-linejoin:miter;stroke-miterlimit:4;stroke-opacity:1;stroke-dashoffset:0"
       d="m -683.86365,-3.3500599 14.47186,-5.14465 5.66732,5.53883 0.4924,11.78842 -14.47186,5.1446499 -6.15972,-17.3272499 z"
       id="path3663"
       sodipodi:nodetypes="cccccc" />
    <path
       style="fill:#deaa87;stroke:#000000;stroke-width:2.77287626;stroke-linecap:butt;stroke-linejoin:miter;stroke-miterlimit:4;stroke-opacity:1;stroke-dashoffset:0"
       d="m -1303.8637,-11.921484 14.4719,-5.14465 5.6673,5.53883 0.4924,11.78842026 -14.4718,5.14465004 -6.1598,-17.3272503 z"
       id="path3740"
       sodipodi:nodetypes="cccccc" />
    <path
       style="fill:none;stroke:#000000;stroke-width:2.77287626;stroke-linecap:butt;stroke-linejoin:miter;stroke-miterlimit:4;stroke-opacity:1;stroke-dashoffset:0"
       d="m -226.39649,14.945907 3.91039,0 4.48255,4.73509 0.31568,-4.73509 6.65049,0 0,18.38956 -15.35911,0 0,-18.38956 z"
       id="path4501"
       sodipodi:nodetypes="cccccccc" />
    <path
       style="fill:#deaa87;stroke:#000000;stroke-width:2.77287626;stroke-linecap:butt;stroke-linejoin:miter;stroke-miterlimit:4;stroke-opacity:1;stroke-dashoffset:0"
       d="m -651.94169,-4.3106899 3.91039,0 4.48255,4.73509002 0.31568,-4.73509002 6.65049,0 0,18.3895599 -15.35911,0 0,-18.3895599 z"
       id="path3665"
       sodipodi:nodetypes="cccccccc" />
    <path
       style="fill:#deaa87;stroke:#000000;stroke-width:2.77287626;stroke-linecap:butt;stroke-linejoin:miter;stroke-miterlimit:4;stroke-opacity:1;stroke-dashoffset:0"
       d="m -1271.9417,-12.882114 3.9104,0 4.4825,4.7350903 0.3157,-4.7350903 6.6505,0 0,18.3895603 -15.3591,0 0,-18.3895603 z"
       id="path3742"
       sodipodi:nodetypes="cccccccc" />
    <path
       style="fill:none;stroke:#000000;stroke-width:2.77287626;stroke-linecap:butt;stroke-linejoin:miter;stroke-miterlimit:4;stroke-opacity:1;stroke-dashoffset:0"
       d="m -166.33094,-49.711524 14.7286,4.355522 -1.95198,6.60078 -5.1357,0.479964 3.68872,4.41313 -1.81594,6.140782 -4.61951,-1.366075 -3.1928,1.889754 -1.39939,-3.24775 -5.5169,-1.631451 -0.14568,-11.463106 5.36058,-6.17155 z"
       id="path4503"
       sodipodi:nodetypes="cccccccccccc" />
    <path
       style="fill:#deaa87;stroke:#000000;stroke-width:2.77287626;stroke-linecap:butt;stroke-linejoin:miter;stroke-miterlimit:4;stroke-opacity:1;stroke-dashoffset:0"
       d="m -591.87614,-68.96812 14.7286,4.35552 -1.95198,6.60078 -5.1357,0.47997 3.68872,4.41313 -1.81594,6.14078 -4.61951,-1.36608 -3.1928,1.88976 -1.39939,-3.24775 -5.5169,-1.63145 -0.14568,-11.46311 5.36058,-6.17155 z"
       id="path3667"
       sodipodi:nodetypes="cccccccccccc" />
    <path
       style="fill:#deaa87;stroke:#000000;stroke-width:2.77287626;stroke-linecap:butt;stroke-linejoin:miter;stroke-miterlimit:4;stroke-opacity:1;stroke-dashoffset:0"
       d="m -1211.8761,-77.539544 14.7286,4.35552 -1.952,6.60078 -5.1357,0.47997 3.6887,4.41313 -1.8159,6.14078 -4.6196,-1.36608 -3.1928,1.88976 -1.3993,-3.24775 -5.5169,-1.63145 -0.1457,-11.46311 5.3606,-6.17155 z"
       id="path3744"
       sodipodi:nodetypes="cccccccccccc" />
    <rect
       ry="0"
       y="268.27884"
       x="-174.38551"
       height="18.389565"
       width="15.359107"
       id="rect4370"
       style="fill:none;stroke:#000000;stroke-width:2.77287626;stroke-linecap:butt;stroke-linejoin:miter;stroke-miterlimit:4;stroke-opacity:1;stroke-dasharray:none;stroke-dashoffset:0" />
    <path
       style="fill:none;stroke:#000000;stroke-width:3.34064388;stroke-linecap:butt;stroke-linejoin:miter;stroke-miterlimit:4;stroke-opacity:1;stroke-dashoffset:0"
       d="m -196.52232,-51.331838 13.20267,2.0623 -2.50612,16.043978 -3.10128,3.863826 0.87267,10.403571 -10.29848,-4.966483 1.83054,-27.407192 z"
       id="path4505"
       sodipodi:nodetypes="ccccccc" />
    <path
       style="fill:#deaa87;stroke:#000000;stroke-width:3.34064388;stroke-linecap:butt;stroke-linejoin:miter;stroke-miterlimit:4;stroke-opacity:1;stroke-dashoffset:0"
       d="m -622.06752,-70.58843 13.20267,2.0623 -2.50612,16.04398 -3.10128,3.86382 0.87267,10.40357 -10.29848,-4.96648 1.83054,-27.40719 z"
       id="path3669"
       sodipodi:nodetypes="ccccccc" />
    <path
       style="fill:#deaa87;stroke:#000000;stroke-width:3.34064388;stroke-linecap:butt;stroke-linejoin:miter;stroke-miterlimit:4;stroke-opacity:1;stroke-dashoffset:0"
       d="m -1242.0675,-79.159854 13.2026,2.0623 -2.5061,16.04398 -3.1013,3.86382 0.8727,10.40357 -10.2985,-4.96648 1.8306,-27.40719 z"
       id="path3746"
       sodipodi:nodetypes="ccccccc" />
    <path
       style="fill:none;stroke:#000000;stroke-width:3.38157177;stroke-linecap:butt;stroke-linejoin:miter;stroke-miterlimit:4;stroke-opacity:1;stroke-dashoffset:0"
       d="m -189.71209,12.053547 18.90097,2.26446 -2.62495,21.9099 -18.90097,-2.26446 0.42208,-3.52295 3.2374,-3.10661 -2.4191,-3.72355 1.38457,-11.55679 z"
       id="path4507"
       sodipodi:nodetypes="cccccccc" />
    <path
       style="fill:#deaa87;stroke:#000000;stroke-width:3.38157177;stroke-linecap:butt;stroke-linejoin:miter;stroke-miterlimit:4;stroke-opacity:1;stroke-dashoffset:0"
       d="m -615.25729,-7.2030499 18.90097,2.26446 -2.62495,21.9098999 -18.90097,-2.26446 0.42208,-3.52295 3.2374,-3.1066099 -2.4191,-3.72355 1.38457,-11.55679 z"
       id="path3671"
       sodipodi:nodetypes="cccccccc" />
    <path
       style="fill:#deaa87;stroke:#000000;stroke-width:3.38157177;stroke-linecap:butt;stroke-linejoin:miter;stroke-miterlimit:4;stroke-opacity:1;stroke-dashoffset:0"
       d="m -1235.2573,-15.774474 18.901,2.26446 -2.625,21.9099003 -18.9009,-2.26446 0.422,-3.52295 3.2374,-3.10661004 -2.4191,-3.72354996 1.3846,-11.5567903 z"
       id="path3748"
       sodipodi:nodetypes="cccccccc" />
    <path
       style="fill:none;stroke:#000000;stroke-width:2.77287626;stroke-linecap:butt;stroke-linejoin:miter;stroke-miterlimit:4;stroke-opacity:1;stroke-dashoffset:0"
       d="m -257.17005,-53.594839 15.02225,3.199091 -3.83029,17.986249 -9.02687,-4.447711 -5.99538,1.24862 3.83029,-17.986249 z"
       id="path4509"
       sodipodi:nodetypes="cccccc" />
    <path
       style="fill:#deaa87;stroke:#000000;stroke-width:2.77287626;stroke-linecap:butt;stroke-linejoin:miter;stroke-miterlimit:4;stroke-opacity:1;stroke-dashoffset:0"
       d="m -682.71525,-72.85143 15.02225,3.19909 -3.83029,17.98625 -9.02687,-4.44771 -5.99538,1.24862 3.83029,-17.98625 z"
       id="path3673"
       sodipodi:nodetypes="cccccc" />
    <path
       style="fill:#deaa87;stroke:#000000;stroke-width:2.77287626;stroke-linecap:butt;stroke-linejoin:miter;stroke-miterlimit:4;stroke-opacity:1;stroke-dashoffset:0"
       d="m -1302.7153,-81.422854 15.0223,3.19909 -3.8303,17.98625 -9.0269,-4.44771 -5.9953,1.24862 3.8302,-17.98625 z"
       id="path3750"
       sodipodi:nodetypes="cccccc" />
    <path
       style="fill:none;stroke:#000000;stroke-width:4.04434061;stroke-linecap:butt;stroke-linejoin:miter;stroke-miterlimit:4;stroke-opacity:1;stroke-dashoffset:0"
       d="m -123.17602,22.550067 c -1.72474,3.70252 -7.70883,10.73412 -16.77005,10.22761 -2.89376,-0.16176 -6.7817,-4.72084 -10.06072,-5.68674 -4.9666,-1.46302 -2.22708,-11.81109 -7.66349,-14.34352 -20.26449,-9.4397799 -52.60637,-2.55362 -49.49654,-9.2295399 3.10983,-6.6759 32.66506,-19.5876301 52.92955,-10.14785 20.26449,9.43978 34.17108,22.5041299 31.06125,29.1800399 z"
       id="path4511"
       sodipodi:nodetypes="csssssc" />
    <path
       style="fill:#c83737;stroke:#000000;stroke-width:4.04434061;stroke-linecap:butt;stroke-linejoin:miter;stroke-miterlimit:4;stroke-opacity:1;stroke-dashoffset:0"
       d="m -548.72122,3.2934701 c -1.72474,3.70252 -7.70883,10.7341199 -16.77005,10.2276099 -2.89376,-0.16176 -6.7817,-4.7208399 -10.06072,-5.6867399 -4.9666,-1.46302 -2.22708,-11.81109 -7.66349,-14.34352 -20.26449,-9.4397801 -52.60637,-2.55362 -49.49654,-9.2295401 3.10983,-6.6759 32.66506,-19.58763 52.92955,-10.14785 20.26449,9.43978 34.17108,22.5041301 31.06125,29.1800401 z"
       id="path3675"
       sodipodi:nodetypes="csssssc" />
    <path
       style="fill:#c83737;stroke:#000000;stroke-width:4.04434061;stroke-linecap:butt;stroke-linejoin:miter;stroke-miterlimit:4;stroke-opacity:1;stroke-dashoffset:0"
       d="m -1168.7212,-5.2779537 c -1.7248,3.70252 -7.7089,10.73412 -16.7701,10.22761 -2.8937,-0.16176 -6.7817,-4.72084004 -10.0607,-5.68674004 -4.9666,-1.46301996 -2.2271,-11.81109026 -7.6635,-14.34352026 -20.2645,-9.43978 -52.6064,-2.55362 -49.4965,-9.22954 3.1098,-6.6759 32.665,-19.58763 52.9295,-10.14785 20.2645,9.43978 34.1711,22.50413 31.0613,29.1800403 z"
       id="path3752"
       sodipodi:nodetypes="csssssc" />
    <path
       style="fill:none;stroke:black;stroke-opacity:1;stroke-width:5;stroke-linejoin:miter;stroke-linecap:butt;fill-rule:evenodd;stroke-miterlimit:4;stroke-dasharray:none"
       d="m -106.06602,149.28581 c 0.47764,0 0.9693,0.0696 1.42614,-0.0698 0.59454,-0.18147 1.08711,-0.59555 1.60432,-0.94036 0.39951,-0.26634 0.5807,-0.79542 1.01015,-1.01015 0.30641,-0.1532 0.67781,0.0831 1.01016,0 0,0 0,0 0,0 1.03472,-0.25868 1.978399,-0.83481 3.030453,-1.01015 0.99822,-0.16637 2.018468,0 3.030458,0 1.010152,0 2.020305,0 3.030457,0 l 1.010153,0 c 0.683032,0 1.409383,-0.30546 2.020305,0 0.153368,0.0767 0.07746,0.30945 0.02365,0.47225 0,1e-5 -10e-7,1e-5 -10e-7,1e-5 -0.05917,0.17903 -0.156987,0.40456 -0.02365,0.53789 0.125158,0.12516 0.335935,0.0522 0.505076,0 0.169141,-0.0522 0.379916,-0.12516 0.505077,0 0.119359,0.11936 0.07566,0.31816 0.03282,0.48143 0,0 -10e-7,0 -10e-7,0 -0.04583,0.17465 -0.113565,0.36723 -0.03281,0.52872 0.35909,0.71818 1.126566,1.13588 1.876991,1.42153 0.699912,0.26642 1.437076,0.41715 2.163619,0.59878 0.327964,0.082 0.672086,0 1.010152,0 l 4.04061,0 c 0.349778,0 0.762825,-0.24733 1.010153,0 0.275012,0.27501 0.365373,0.67854 0.469799,1.05318 0.101399,0.36379 0.226125,0.75764 0.540354,0.96712 0.573025,0.38202 1.331611,0 2.020305,0 0.673435,0 1.34687,0 2.020305,0 2e-6,0 3e-6,0 5e-6,0 0.336715,0 0.673431,0 1.010147,0 0.341516,0 0.704694,0.15274 1.010153,0 0.428859,-0.21442 0.671114,-0.67111 1.010152,-1.01015 0.339039,-0.33904 0.795726,-0.58129 1.010153,-1.01015 10e-7,0 10e-7,0 2e-6,0 0.08075,-0.1615 0.01301,-0.35408 -0.03282,-0.52873 -0.04285,-0.16327 -0.08654,-0.36206 0.03282,-0.48142 0.536141,-0.53614 1.389429,-0.58957 2.020305,-1.01016 0.795786,-0.53052 1.224524,-1.48978 2.020305,-2.0203 0.635481,-0.42366 1.562052,-0.39915 2.020305,-1.01015 0.645275,-0.86037 0.833349,-1.96963 1.010153,-3.03046 0.08785,-0.5271 -0.06963,-1.06005 -0.165009,-1.58584 -0.08917,-0.49153 -0.134724,-1.04497 0.165006,-1.44462 10e-7,0 2e-6,0 3e-6,0 0.319233,-0.42564 0.906852,-0.52369 1.435369,-0.58493 0.553377,-0.0641 1.149425,-0.091 1.595088,-0.42522 0.302784,-0.22709 0.425978,-0.61638 0.531305,-0.97991 0.107445,-0.37084 0.205843,-0.76739 0.478848,-1.0404 0.119359,-0.11936 0.318149,-0.0757 0.481419,-0.0328 10e-7,0 3e-6,0 4e-6,0 0.174648,0.0458 0.367231,0.11356 0.528729,0.0328 0.428859,-0.21442 0.671114,-0.67111 1.010153,-1.01015 0.336715,-0.33672 0.673435,-0.67343 1.01015,-1.01015 10e-7,0 2e-6,0 3e-6,0 0.339037,-0.33904 0.581296,-0.79572 1.010148,-1.01015 10e-7,0 3e-6,0 4e-6,0 0.305459,-0.15274 0.668637,0 1.010153,0 1.010152,0 2.020305,0 3.030457,0 0.683032,0 1.409383,-0.30546 2.020305,0 0.144973,0.0725 0.144184,0.27622 0.11294,0.43527 -10e-7,0 -10e-7,0 -10e-7,0 -0.03772,0.192 -0.112938,0.37921 -0.112939,0.57488 0,0 0,0 0,0 0,0.34152 -0.152729,0.70469 0,1.01015 0.198077,0.39615 0.394002,0.79631 0.650437,1.15743 0.05452,0.0768 0.110482,0.15485 0.185363,0.21194 0.03253,0.0248 0.07794,0.0481 0.11207,0.0256 0.03678,-0.0243 0.04636,-0.0738 0.05373,-0.11725 0.0121,-0.0713 0.01218,-0.14415 0.01035,-0.21646 0,0 0,-1e-5 0,-1e-5 -0.0047,-0.18613 -0.02728,-0.37133 -0.0496,-0.55618 -0.01727,-0.14304 -0.04319,-0.28582 -0.04362,-0.4299 0,0 0,0 0,0 0,-1e-5 0,-1e-5 0,-1e-5 -4.7e-5,-0.0157 -2.54e-4,-0.0318 0.004,-0.0469 0.0019,-0.007 0.0073,-0.0143 0.01377,-0.0117 0.03818,0.0152 0.04692,0.0665 0.06419,0.10373 0.431982,0.93281 0.694484,1.935 1.01956,2.91023 0.107825,0.32348 -0.107824,0.68667 0,1.01015 0.238596,0.71579 0.771558,1.30452 1.010153,2.02031 0.108709,0.32612 -0.153735,0.70268 0,1.01015 0.21565,0.4313 0.794503,0.57885 1.010153,1.01015 0.08075,0.1615 0.01302,0.35408 -0.03282,0.52873 0,0 -1e-6,0 -1e-6,0 -0.04285,0.16327 -0.08654,0.36206 0.03282,0.48142 0.125158,0.12516 0.335935,0.0522 0.505076,0 2e-6,0 3e-6,0 5e-6,0 0.16914,-0.0522 0.379912,-0.12516 0.505071,0 0.250319,0.25032 0.104324,0.67187 0,1.01015 -0.104323,0.33829 -0.250319,0.75984 0,1.01016 0.247333,0.24733 0.660376,0 1.010153,0"
       id="path4392"
       inkscape:path-effect="#path-effect4394"
       inkscape:original-d="m -106.06602,149.28581 c 1.50353,0 1.28935,0.15058 3.03046,-1.01016 0.39621,-0.26414 0.58424,-0.79719 1.01015,-1.01015 0.30117,-0.15058 0.68349,0.0817 1.01016,0 1.032998,-0.25825 1.980146,-0.8351 3.030453,-1.01015 0.996408,-0.16607 2.020305,0 3.030458,0 1.010152,0 2.020305,0 3.030457,0 0.336718,0 0.673435,0 1.010153,0 0.673435,0 1.417966,-0.30117 2.020305,0 0.301169,0.15058 -0.238095,0.77206 0,1.01015 0.238095,0.2381 0.772057,-0.23809 1.010153,0 0.238095,0.2381 -0.150585,0.70899 0,1.01015 0.681447,1.3629 2.976993,1.75441 4.04061,2.02031 0.326664,0.0817 0.673435,0 1.010152,0 1.34687,0 2.69374,0 4.04061,0 0.336718,0 0.772058,-0.2381 1.010153,0 0.532397,0.5324 0.383683,1.60266 1.010153,2.0203 0.560331,0.37356 1.34687,0 2.020305,0 0.673435,0 1.34687,0 2.020305,0 0.336717,0 0.673435,0 1.010152,0 0.336718,0 0.708984,0.15059 1.010153,0 0.425918,-0.21295 0.673435,-0.67343 1.010152,-1.01015 0.336718,-0.33672 0.797194,-0.58423 1.010153,-1.01015 0.150585,-0.30117 -0.238095,-0.77206 0,-1.01015 0.532397,-0.5324 1.393835,-0.59251 2.020305,-1.01016 0.792429,-0.52828 1.227876,-1.49201 2.020305,-2.0203 0.62647,-0.41765 1.568551,-0.40781 2.020305,-1.01015 0.638877,-0.85184 0.835102,-1.98015 1.010153,-3.03046 0.166068,-0.99641 -0.606092,-2.22234 0,-3.03046 0.638876,-0.85183 2.178622,-0.37127 3.030457,-1.01015 0.602339,-0.45175 0.477756,-1.48791 1.010153,-2.02031 0.238095,-0.23809 0.708983,0.15059 1.010152,0 0.425918,-0.21295 0.673435,-0.67343 1.010153,-1.01015 0.336718,-0.33672 0.673435,-0.67343 1.010153,-1.01015 0.336717,-0.33672 0.584234,-0.79719 1.010152,-1.01015 0.301169,-0.15059 0.673435,0 1.010153,0 1.010152,0 2.020305,0 3.030457,0 0.673435,0 1.417967,-0.30117 2.020305,0 0.30117,0.15058 0,0.67343 0,1.01015 0,0.33672 -0.150584,0.70898 0,1.01015 2.311536,4.62307 -0.41868,-4.2865 2.020305,3.03046 0.10648,0.31944 -0.106479,0.69071 0,1.01015 0.238096,0.71429 0.772058,1.30602 1.010153,2.02031 0.106479,0.31943 -0.150585,0.70898 0,1.01015 0.212959,0.42592 0.797194,0.58423 1.010153,1.01015 0.150584,0.30117 -0.238096,0.77206 0,1.01015 0.238095,0.2381 0.772057,-0.23809 1.010152,0 0.476191,0.47619 -0.47619,1.54412 0,2.02031 0.238095,0.23809 0.673435,0 1.010153,0" />
    <path
       style="fill:none;stroke:#000000;stroke-width:5;stroke-linecap:butt;stroke-linejoin:miter;stroke-miterlimit:4;stroke-opacity:1;stroke-dasharray:none"
       d="m -170.71578,-142.64828 c 0.67592,0 1.34439,0 2.0203,0 0.33672,0 0.70899,0.15059 1.01016,0 0.42591,-0.21296 0.58423,-0.79719 1.01015,-1.01015 0.30117,-0.15058 0.67343,0 1.01015,0 0.67526,0 1.34505,0 2.02031,0 0.33671,0 0.77205,0.2381 1.01015,0 0.2381,-0.23809 -0.2381,-0.77206 0,-1.01015 0.2381,-0.2381 0.67344,0 1.01015,0 0.33672,0 0.67344,0 1.01016,0 2.69374,0 5.38748,0 8.08122,0 0.33671,0 0.67343,0 1.01015,0 0.33672,0 1.01015,-0.33672 1.01015,0 0,0.33672 -1.24825,-0.2381 -1.01015,0 1.25605,1.25605 2.53986,1.01015 4.04061,1.01015 2.0203,0 4.04061,0 6.06091,0 0.33672,0 0.67344,0 1.01016,0 0.33671,0 0.70898,-0.15058 1.01015,0 0.42592,0.21296 0.67343,0.67344 1.01015,1.01015"
       id="path4513" />
    <path
       style="fill:none;stroke:#000000;stroke-width:5;stroke-linecap:butt;stroke-linejoin:miter;stroke-miterlimit:4;stroke-opacity:1;stroke-dasharray:none"
       d="m -596.26098,-161.90487 c 0.67592,0 1.34439,0 2.0203,0 0.33672,0 0.70899,0.15059 1.01016,0 0.42591,-0.21296 0.58423,-0.79719 1.01015,-1.01015 0.30117,-0.15058 0.67343,0 1.01015,0 0.67526,0 1.34505,0 2.02031,0 0.33671,0 0.77205,0.2381 1.01015,0 0.2381,-0.23809 -0.2381,-0.77206 0,-1.01015 0.2381,-0.2381 0.67344,0 1.01015,0 0.33672,0 0.67344,0 1.01016,0 2.69374,0 5.38748,0 8.08122,0 0.33671,0 0.67343,0 1.01015,0 0.33672,0 1.01015,-0.33672 1.01015,0 0,0.33672 -1.24825,-0.2381 -1.01015,0 1.25605,1.25605 2.53986,1.01015 4.04061,1.01015 2.0203,0 4.04061,0 6.06091,0 0.33672,0 0.67344,0 1.01016,0 0.33671,0 0.70898,-0.15058 1.01015,0 0.42592,0.21296 0.67343,0.67344 1.01015,1.01015"
       id="path3677" />
    <path
       style="fill:none;stroke:#000000;stroke-width:5;stroke-linecap:butt;stroke-linejoin:miter;stroke-miterlimit:4;stroke-opacity:1;stroke-dasharray:none"
       d="m -1216.261,-170.47629 c 0.6759,0 1.3444,0 2.0203,0 0.3367,0 0.709,0.15059 1.0102,0 0.4259,-0.21296 0.5842,-0.79719 1.0101,-1.01015 0.3012,-0.15058 0.6735,0 1.0102,0 0.6752,0 1.345,0 2.0203,0 0.3367,0 0.772,0.2381 1.0101,0 0.2381,-0.23809 -0.2381,-0.77206 0,-1.01015 0.2381,-0.2381 0.6735,0 1.0102,0 0.3367,0 0.6734,0 1.0101,0 2.6938,0 5.3875,0 8.0813,0 0.3367,0 0.6734,0 1.0101,0 0.3367,0 1.0102,-0.33672 1.0102,0 0,0.33672 -1.2483,-0.2381 -1.0102,0 1.2561,1.25605 2.5399,1.01015 4.0406,1.01015 2.0203,0 4.0406,0 6.0609,0 0.3368,0 0.6735,0 1.0102,0 0.3367,0 0.709,-0.15058 1.0101,0 0.426,0.21296 0.6735,0.67344 1.0102,1.01015"
       id="path3754" />
    <path
       style="fill:none;stroke:#000000;stroke-width:5;stroke-linecap:butt;stroke-linejoin:miter;stroke-miterlimit:4;stroke-opacity:1;stroke-dasharray:none"
       d="m -160.61425,-153.75995 c 0.67343,0 1.38142,0.21295 2.0203,0 0.45175,-0.15059 0.5584,-0.85957 1.01015,-1.01016 0.63888,-0.21296 1.34687,0 2.02031,0 0.67592,0 1.34439,0 2.0203,0 0.33672,0 0.69072,0.10648 1.01016,0 0.71428,-0.23809 1.30601,-0.77205 2.0203,-1.01015 0.31944,-0.10648 0.67344,0 1.01015,0 0.33672,0 0.67344,0 1.01016,0 2.0203,0 4.04061,0 6.06091,0 1.68359,0 3.36718,0 5.05076,0 0.33672,0 0.67344,0 1.01016,0 0.67343,0 1.38142,0.21296 2.0203,0 0.90351,-0.30117 1.09636,-1.78932 2.02031,-2.0203 0.97999,-0.245 2.0203,0 3.03045,0 1.34687,0 2.69374,0 4.04061,0 2.69374,0 5.38748,0 8.08122,0 0.33672,0 0.67344,0 1.01016,0 0.33671,0 1.01015,-0.33672 1.01015,0 0,0.33671 -1.01015,-0.33672 -1.01015,0 0,0.47619 0.79719,0.58423 1.01015,1.01015 0.21069,0.42139 -0.23517,1.78513 0,2.0203 0.23809,0.2381 0.67343,0 1.01015,0"
       id="path4515" />
    <path
       style="fill:none;stroke:#000000;stroke-width:5;stroke-linecap:butt;stroke-linejoin:miter;stroke-miterlimit:4;stroke-opacity:1;stroke-dasharray:none"
       d="m -586.15945,-173.01654 c 0.67343,0 1.38142,0.21295 2.0203,0 0.45175,-0.15059 0.5584,-0.85957 1.01015,-1.01016 0.63888,-0.21296 1.34687,0 2.02031,0 0.67592,0 1.34439,0 2.0203,0 0.33672,0 0.69072,0.10648 1.01016,0 0.71428,-0.23809 1.30601,-0.77205 2.0203,-1.01015 0.31944,-0.10648 0.67344,0 1.01015,0 0.33672,0 0.67344,0 1.01016,0 2.0203,0 4.04061,0 6.06091,0 1.68359,0 3.36718,0 5.05076,0 0.33672,0 0.67344,0 1.01016,0 0.67343,0 1.38142,0.21296 2.0203,0 0.90351,-0.30117 1.09636,-1.78932 2.02031,-2.0203 0.97999,-0.245 2.0203,0 3.03045,0 1.34687,0 2.69374,0 4.04061,0 2.69374,0 5.38748,0 8.08122,0 0.33672,0 0.67344,0 1.01016,0 0.33671,0 1.01015,-0.33672 1.01015,0 0,0.33671 -1.01015,-0.33672 -1.01015,0 0,0.47619 0.79719,0.58423 1.01015,1.01015 0.21069,0.42139 -0.23517,1.78513 0,2.0203 0.23809,0.2381 0.67343,0 1.01015,0"
       id="path3679" />
    <path
       style="fill:none;stroke:#000000;stroke-width:5;stroke-linecap:butt;stroke-linejoin:miter;stroke-miterlimit:4;stroke-opacity:1;stroke-dasharray:none"
       d="m -1206.1595,-181.58796 c 0.6735,0 1.3815,0.21295 2.0203,0 0.4518,-0.15059 0.5584,-0.85957 1.0102,-1.01016 0.6389,-0.21296 1.3469,0 2.0203,0 0.6759,0 1.3444,0 2.0203,0 0.3367,0 0.6907,0.10648 1.0102,0 0.7142,-0.23809 1.306,-0.77205 2.0203,-1.01015 0.3194,-0.10648 0.6734,0 1.0101,0 0.3367,0 0.6735,0 1.0102,0 2.0203,0 4.0406,0 6.0609,0 1.6836,0 3.3672,0 5.0507,0 0.3368,0 0.6735,0 1.0102,0 0.6734,0 1.3814,0.21296 2.0203,0 0.9035,-0.30117 1.0964,-1.78932 2.0203,-2.0203 0.98,-0.245 2.0203,0 3.0305,0 1.3468,0 2.6937,0 4.0406,0 2.6937,0 5.3875,0 8.0812,0 0.3367,0 0.6734,0 1.0102,0 0.3367,0 1.0101,-0.33672 1.0101,0 0,0.33671 -1.0101,-0.33672 -1.0101,0 0,0.47619 0.7971,0.58423 1.0101,1.01015 0.2107,0.42139 -0.2352,1.78513 0,2.0203 0.2381,0.2381 0.6734,0 1.0102,0"
       id="path3756" />
    <path
       style="fill:none;stroke:#000000;stroke-width:5;stroke-linecap:butt;stroke-linejoin:miter;stroke-miterlimit:4;stroke-opacity:1;stroke-dasharray:none"
       d="m -103.03556,-39.612722 c 1.24825,1.24825 0.53396,1.01016 2.02031,1.01016 0.33671,0 0.77205,-0.2381 1.01015,0 0.532386,0.53239 0.477746,1.4879 1.010146,2.0203 2.09004,2.09004 -0.0817,-3.19386 2.02031,1.01015 0.15058,0.30117 0,0.67344 0,1.01016 0,1.24397 -0.15059,1.86972 1.01015,3.03045 0.23809,0.2381 0.77206,-0.23809 1.01015,0 0.2381,0.2381 -0.23809,0.77206 0,1.01016 0.2381,0.23809 0.70898,-0.15059 1.01015,0 0.42592,0.21296 0.67344,0.67343 1.01016,1.01015 0.33671,0.33672 0.79719,0.58423 1.01015,1.01015 0.30117,0.60234 -0.30117,1.41797 0,2.02031 0.21296,0.42591 0.79719,0.58423 1.01015,1.01015 0.15059,0.30117 -0.15058,0.70898 0,1.01015 0.21296,0.42592 0.79719,0.58424 1.01015,1.01015 0.15059,0.30117 0,0.67344 0,1.01016 0,0.33671 0,0.67343 0,1.01015 0,0.33672 0,0.67343 0,1.01015 0,0.336719 0.15059,0.708989 0,1.010149 -0.21296,0.42592 -0.79719,0.58424 -1.01015,1.01016 -0.15058,0.30117 0,0.67343 0,1.01015 0,1.01015 0,2.0203 0,3.03046 0,2.35702 0,4.7140401 0,7.0710601 0,2.02031 0,4.04062 0,6.06092 0,0.67344 0,1.34687 0,2.02031 0,0.33671 0.18678,0.72998 0,1.01015 -2.1926,3.2889 -1.87907,0.58645 -3.03046,4.04061 -0.10648,0.31944 0,0.67343 0,1.01015 0,0.33672 0,0.67344 0,1.01015 0,0.33672 0.2381,0.77206 0,1.01016 -0.23809,0.23809 -0.77205,-0.2381 -1.01015,0 -0.23809,0.23809 0,0.67343 0,1.01015 -0.67343,0 -1.41797,-0.30117 -2.0203,0 -0.30117,0.1505799 0.15058,0.7089799 0,1.0101499 -2.10201,4.20401 0.0697,-1.0798899 -2.02031,1.01015 -0.23809,0.2381 0.2381,0.77206 0,1.01016 -0.23809,0.23809 -0.77206,-0.2381 -1.010146,0 -0.2381,0.23809 0,0.67343 0,1.01015 0,0.67343 0,1.34687 0,2.0203 0,0.33672 0.150576,0.70899 0,1.01016 -0.21296,0.42591 -0.67344,0.67343 -1.01015,1.01015"
       id="path4517" />
    <path
       style="fill:none;stroke:#000000;stroke-width:5;stroke-linecap:butt;stroke-linejoin:miter;stroke-miterlimit:4;stroke-opacity:1;stroke-dasharray:none"
       d="m -528.58076,-58.86932 c 1.24825,1.24825 0.53396,1.01016 2.02031,1.01016 0.33671,0 0.77205,-0.2381 1.01015,0 0.53239,0.53239 0.47775,1.4879 1.01015,2.0203 2.09004,2.09004 -0.0817,-3.19386 2.02031,1.01015 0.15058,0.30117 0,0.67344 0,1.01016 0,1.24397 -0.15059,1.86972 1.01015,3.03045 0.23809,0.2381 0.77206,-0.23809 1.01015,0 0.2381,0.2381 -0.23809,0.77206 0,1.01016 0.2381,0.23809 0.70898,-0.15059 1.01015,0 0.42592,0.21296 0.67344,0.67343 1.01016,1.01015 0.33671,0.33672 0.79719,0.58423 1.01015,1.01015 0.30117,0.60234 -0.30117,1.41797 0,2.02031 0.21296,0.42591 0.79719,0.58423 1.01015,1.01015 0.15059,0.30117 -0.15058,0.70898 0,1.01015 0.21296,0.42592 0.79719,0.58424 1.01015,1.01015 0.15059,0.30117 0,0.67344 0,1.01016 0,0.33671 0,0.67343 0,1.01015 0,0.33672 0,0.67343 0,1.01015 0,0.33672 0.15059,0.70899 0,1.01015 -0.21296,0.42592 -0.79719,0.58424 -1.01015,1.01016 -0.15058,0.30117 0,0.67343 0,1.01015 0,1.01015 0,2.0203 0,3.03046 0,2.35702 0,4.71404 0,7.07106 0,2.02031 0,4.04062 0,6.06092 0,0.67344 0,1.34687 0,2.02031 0,0.33671 0.18678,0.72998 0,1.01015 -2.1926,3.2889 -1.87907,0.58645 -3.03046,4.04061 -0.10648,0.31944 0,0.67343 0,1.01015 0,0.33672 0,0.67344 0,1.01015 0,0.33672 0.2381,0.77206 0,1.01016 -0.23809,0.23809 -0.77205,-0.2381 -1.01015,0 -0.23809,0.23809 0,0.6734301 0,1.0101501 -0.67343,0 -1.41797,-0.30117 -2.0203,0 -0.30117,0.15058 0.15058,0.70898 0,1.01015 -2.10201,4.20401 0.0697,-1.07989 -2.02031,1.01015 -0.23809,0.2381 0.2381,0.77206 0,1.01016 -0.23809,0.23809 -0.77206,-0.2381 -1.01015,0 -0.2381,0.23809 0,0.67343 0,1.01015 0,0.67343 0,1.34687 0,2.0203 0,0.33672 0.15058,0.70899 0,1.01016 -0.21296,0.42591 -0.67344,0.67343 -1.01015,1.01015"
       id="path3681" />
    <path
       style="fill:none;stroke:#000000;stroke-width:5;stroke-linecap:butt;stroke-linejoin:miter;stroke-miterlimit:4;stroke-opacity:1;stroke-dasharray:none"
       d="m -1148.5808,-67.440744 c 1.2483,1.24825 0.534,1.01016 2.0203,1.01016 0.3368,0 0.7721,-0.2381 1.0102,0 0.5324,0.53239 0.4777,1.4879 1.0101,2.0203 2.0901,2.09004 -0.082,-3.19386 2.0204,1.01015 0.1505,0.30117 0,0.67344 0,1.01016 0,1.24397 -0.1506,1.86972 1.0101,3.03045 0.2381,0.2381 0.7721,-0.23809 1.0102,0 0.2381,0.2381 -0.2381,0.77206 0,1.01016 0.2381,0.23809 0.7089,-0.15059 1.0101,0 0.4259,0.21296 0.6734,0.67343 1.0102,1.01015 0.3367,0.33672 0.7972,0.58423 1.0101,1.01015 0.3012,0.60234 -0.3012,1.41797 0,2.02031 0.213,0.42591 0.7972,0.58423 1.0102,1.01015 0.1506,0.30117 -0.1506,0.70898 0,1.01015 0.2129,0.42592 0.7972,0.58424 1.0101,1.01015 0.1506,0.30117 0,0.67344 0,1.01016 0,0.33671 0,0.67343 0,1.01015 0,0.33672 0,0.67343 0,1.01015 0,0.33672 0.1506,0.70899 0,1.01015 -0.2129,0.42592 -0.7972,0.58424 -1.0101,1.01016 -0.1506,0.30117 0,0.67343 0,1.01015 0,1.01015 0,2.0203 0,3.03046 0,2.35702 0,4.71404 0,7.07106 0,2.02031 0,4.04062 0,6.06092 0,0.67344 0,1.34687 0,2.02031 0,0.33671 0.1867,0.72998 0,1.01015 -2.1926,3.2889 -1.8791,0.58645 -3.0305,4.04061 -0.1065,0.31944 0,0.67343 0,1.01015 0,0.33672 0,0.67344 0,1.01015 0,0.33672 0.2381,0.77206 0,1.01016 -0.2381,0.23809 -0.772,-0.2381 -1.0101,0 -0.2381,0.23809 0,0.67343 0,1.01015 -0.6735,0 -1.418,-0.30117 -2.0203,0 -0.3012,0.15058 0.1505,0.70898 0,1.01015 -2.1021,4.20401 0.07,-1.07989 -2.0204,1.01015 -0.238,0.2381 0.2381,0.77206 0,1.01016 -0.238,0.23809 -0.772,-0.2381 -1.0101,0 -0.2381,0.23809 0,0.67343 0,1.01015 0,0.67343 0,1.34687 0,2.0203 0,0.33672 0.1506,0.70899 0,1.01016 -0.213,0.42591 -0.6734,0.67343 -1.0102,1.0101503"
       id="path3758" />
    <path
       style="fill:none;stroke:#000000;stroke-width:5;stroke-linecap:butt;stroke-linejoin:miter;stroke-miterlimit:4;stroke-opacity:1;stroke-dasharray:none"
       d="m -186.87822,-166.89194 c -2.69374,0 0.33672,0.33672 -1.01015,-1.01015 -0.2381,-0.2381 -0.77206,0.2381 -1.01016,0 -0.47619,-0.47619 0.47619,-1.54411 0,-2.0203 -0.23809,-0.2381 -0.77205,0.23809 -1.01015,0 -0.23809,-0.2381 0,-0.67344 0,-1.01016 0,-1.01015 0,-2.0203 0,-3.03046 0,-0.67343 0.30117,-1.41796 0,-2.0203 -1.34687,-2.69374 -1.01015,3.03046 -1.01015,-1.01015 0,-0.33672 0,-0.67344 0,-1.01016 0,-0.33671 0.30117,-0.85956 0,-1.01015 -0.60234,-0.30117 -1.38143,0.21296 -2.02031,0 -0.45175,-0.15058 -0.58423,-0.79719 -1.01015,-1.01015 -0.54073,-0.27037 -1.47957,0.27037 -2.0203,0 -0.42592,-0.21296 -0.7972,-0.58424 -1.01016,-1.01015 -0.15058,-0.30117 0.30117,-0.85957 0,-1.01016 -0.60234,-0.30117 -1.34687,0 -2.0203,0 -0.33672,0 -0.67344,0 -1.01015,0 -0.33672,0 -0.70899,0.15059 -1.01016,0 -0.42591,-0.21296 -0.58423,-0.79719 -1.01015,-1.01015 -0.30117,-0.15058 -0.67343,0 -1.01015,0 -0.66483,0 -1.35547,0 -2.02031,0 -0.67343,0 -1.41796,0.30117 -2.0203,0 -0.30117,-0.15058 0.15058,-0.70898 0,-1.01015 -0.21296,-0.42592 -0.58424,-0.7972 -1.01015,-1.01015 -0.30117,-0.15059 -0.67344,0 -1.01016,0 -0.33671,0 -0.67343,0 -1.01015,0 -1.01015,0 -2.0203,0 -3.03046,0 -0.33671,0 -0.77205,0.23809 -1.01015,0 -0.2381,-0.2381 0.2381,-0.77206 0,-1.01016 -0.2381,-0.23809 -1.01015,0.33672 -1.01015,0 0,-0.33671 1.34687,0 1.01015,0 -2.0203,0 -4.04061,0 -6.06092,0"
       id="path4519" />
    <path
       style="fill:none;stroke:#000000;stroke-width:5;stroke-linecap:butt;stroke-linejoin:miter;stroke-miterlimit:4;stroke-opacity:1;stroke-dasharray:none"
       d="m -612.42342,-186.14853 c -2.69374,0 0.33672,0.33672 -1.01015,-1.01015 -0.2381,-0.2381 -0.77206,0.2381 -1.01016,0 -0.47619,-0.47619 0.47619,-1.54411 0,-2.0203 -0.23809,-0.2381 -0.77205,0.23809 -1.01015,0 -0.23809,-0.2381 0,-0.67344 0,-1.01016 0,-1.01015 0,-2.0203 0,-3.03046 0,-0.67343 0.30117,-1.41796 0,-2.0203 -1.34687,-2.69374 -1.01015,3.03046 -1.01015,-1.01015 0,-0.33672 0,-0.67344 0,-1.01016 0,-0.33671 0.30117,-0.85956 0,-1.01015 -0.60234,-0.30117 -1.38143,0.21296 -2.02031,0 -0.45175,-0.15058 -0.58423,-0.79719 -1.01015,-1.01015 -0.54073,-0.27037 -1.47957,0.27037 -2.0203,0 -0.42592,-0.21296 -0.7972,-0.58424 -1.01016,-1.01015 -0.15058,-0.30117 0.30117,-0.85957 0,-1.01016 -0.60234,-0.30117 -1.34687,0 -2.0203,0 -0.33672,0 -0.67344,0 -1.01015,0 -0.33672,0 -0.70899,0.15059 -1.01016,0 -0.42591,-0.21296 -0.58423,-0.79719 -1.01015,-1.01015 -0.30117,-0.15058 -0.67343,0 -1.01015,0 -0.66483,0 -1.35547,0 -2.02031,0 -0.67343,0 -1.41796,0.30117 -2.0203,0 -0.30117,-0.15058 0.15058,-0.70898 0,-1.01015 -0.21296,-0.42592 -0.58424,-0.7972 -1.01015,-1.01015 -0.30117,-0.15059 -0.67344,0 -1.01016,0 -0.33671,0 -0.67343,0 -1.01015,0 -1.01015,0 -2.0203,0 -3.03046,0 -0.33671,0 -0.77205,0.23809 -1.01015,0 -0.2381,-0.2381 0.2381,-0.77206 0,-1.01016 -0.2381,-0.23809 -1.01015,0.33672 -1.01015,0 0,-0.33671 1.34687,0 1.01015,0 -2.0203,0 -4.04061,0 -6.06092,0"
       id="path3683" />
    <path
       style="fill:none;stroke:#000000;stroke-width:5;stroke-linecap:butt;stroke-linejoin:miter;stroke-miterlimit:4;stroke-opacity:1;stroke-dasharray:none"
       d="m -1232.4234,-194.71995 c -2.6938,0 0.3367,0.33672 -1.0102,-1.01015 -0.2381,-0.2381 -0.772,0.2381 -1.0101,0 -0.4762,-0.47619 0.4762,-1.54411 0,-2.0203 -0.2381,-0.2381 -0.7721,0.23809 -1.0102,0 -0.2381,-0.2381 0,-0.67344 0,-1.01016 0,-1.01015 0,-2.0203 0,-3.03046 0,-0.67343 0.3012,-1.41797 0,-2.02031 -1.3469,-2.69374 -1.0101,3.03047 -1.0101,-1.01015 0,-0.33672 0,-0.67344 0,-1.01016 0,-0.33671 0.3011,-0.85956 0,-1.01015 -0.6024,-0.30117 -1.3815,0.21296 -2.0203,0 -0.4518,-0.15058 -0.5843,-0.79719 -1.0102,-1.01015 -0.5407,-0.27037 -1.4796,0.27037 -2.0203,0 -0.4259,-0.21296 -0.7972,-0.58424 -1.0102,-1.01015 -0.1505,-0.30117 0.3012,-0.85957 0,-1.01016 -0.6023,-0.30117 -1.3468,0 -2.0203,0 -0.3367,0 -0.6734,0 -1.0101,0 -0.3367,0 -0.709,0.15059 -1.0102,0 -0.4259,-0.21296 -0.5842,-0.79719 -1.0101,-1.01015 -0.3012,-0.15058 -0.6734,0 -1.0102,0 -0.6648,0 -1.3554,0 -2.0203,0 -0.6734,0 -1.4179,0.30117 -2.0203,0 -0.3011,-0.15058 0.1506,-0.70898 0,-1.01015 -0.2129,-0.42592 -0.5842,-0.7972 -1.0101,-1.01015 -0.3012,-0.15059 -0.6735,0 -1.0102,0 -0.3367,0 -0.6734,0 -1.0101,0 -1.0102,0 -2.0203,0 -3.0305,0 -0.3367,0 -0.772,0.23809 -1.0101,0 -0.2381,-0.2381 0.2381,-0.77206 0,-1.01016 -0.2381,-0.23809 -1.0102,0.33672 -1.0102,0 0,-0.33671 1.3469,0 1.0102,0 -2.0203,0 -4.0407,0 -6.061,0"
       id="path3760" />
    <path
       style="fill:none;stroke:#000000;stroke-width:5;stroke-linecap:butt;stroke-linejoin:miter;stroke-miterlimit:4;stroke-opacity:1;stroke-dasharray:none"
       d="m -155.56349,-176.99346 c 0,-1.34687 0,-2.69374 0,-4.04061 0,-0.67344 -0.30117,-1.41797 0,-2.02031 0.15058,-0.30117 0.77206,0.2381 1.01015,0 0.2381,-0.23809 -0.23809,-0.77206 0,-1.01015 0.2381,-0.2381 0.67344,0 1.01015,0 0.33672,0 0.67344,0 1.01016,0 0.33671,0 0.70898,0.15058 1.01015,0 0.42592,-0.21296 0.58423,-0.7972 1.01015,-1.01015 0.30117,-0.15059 0.67344,0 1.01015,0 0.67344,0 1.34687,0 2.02031,0 0.67343,0 1.38143,0.21295 2.0203,0 2.01016,-0.67006 0.47141,-0.94281 1.01016,-2.02031 0.68635,-1.37271 1.33395,-0.64759 2.0203,-2.0203 0.15059,-0.30117 -0.15058,-0.70899 0,-1.01016 0.21296,-0.42592 0.79719,-0.58423 1.01015,-1.01015 0.15059,-0.30117 0,-0.67343 0,-1.01015 0,-0.33672 0,-0.67344 0,-1.01015 0,-0.33672 -0.10648,-0.69072 0,-1.01016 0.2381,-0.71428 0.77206,-1.30602 1.01016,-2.0203 0.10648,-0.31944 -0.2381,-0.77206 0,-1.01016 0.23809,-0.23809 0.77205,0.2381 1.01015,0 0.23809,-0.23809 0,-0.67343 0,-1.01015 0,-1.01015 0,-2.0203 0,-3.03046 0,-0.33671 -0.33672,-1.01015 0,-1.01015 0.33672,0 0,0.67344 0,1.01015"
       id="path4521" />
    <path
       style="fill:none;stroke:#000000;stroke-width:5;stroke-linecap:butt;stroke-linejoin:miter;stroke-miterlimit:4;stroke-opacity:1;stroke-dasharray:none"
       d="m -581.10869,-196.25005 c 0,-1.34687 0,-2.69374 0,-4.04061 0,-0.67344 -0.30117,-1.41797 0,-2.02031 0.15058,-0.30117 0.77206,0.2381 1.01015,0 0.2381,-0.23809 -0.23809,-0.77206 0,-1.01015 0.2381,-0.2381 0.67344,0 1.01015,0 0.33672,0 0.67344,0 1.01016,0 0.33671,0 0.70898,0.15058 1.01015,0 0.42592,-0.21296 0.58423,-0.7972 1.01015,-1.01015 0.30117,-0.15059 0.67344,0 1.01015,0 0.67344,0 1.34687,0 2.02031,0 0.67343,0 1.38143,0.21295 2.0203,0 2.01016,-0.67006 0.47141,-0.94281 1.01016,-2.02031 0.68635,-1.37271 1.33395,-0.64759 2.0203,-2.0203 0.15059,-0.30117 -0.15058,-0.70899 0,-1.01016 0.21296,-0.42592 0.79719,-0.58423 1.01015,-1.01015 0.15059,-0.30117 0,-0.67343 0,-1.01015 0,-0.33672 0,-0.67344 0,-1.01015 0,-0.33672 -0.10648,-0.69072 0,-1.01016 0.2381,-0.71428 0.77206,-1.30602 1.01016,-2.0203 0.10648,-0.31944 -0.2381,-0.77206 0,-1.01016 0.23809,-0.23809 0.77205,0.2381 1.01015,0 0.23809,-0.23809 0,-0.67343 0,-1.01015 0,-1.01015 0,-2.0203 0,-3.03046 0,-0.33671 -0.33672,-1.01015 0,-1.01015 0.33672,0 0,0.67344 0,1.01015"
       id="path3685" />
    <path
       style="fill:none;stroke:#000000;stroke-width:5;stroke-linecap:butt;stroke-linejoin:miter;stroke-miterlimit:4;stroke-opacity:1;stroke-dasharray:none"
       d="m -1201.1087,-204.82148 c 0,-1.34687 0,-2.69374 0,-4.04061 0,-0.67344 -0.3012,-1.41797 0,-2.02031 0.1506,-0.30117 0.7721,0.2381 1.0102,0 0.2381,-0.23809 -0.2381,-0.77206 0,-1.01015 0.2381,-0.2381 0.6734,0 1.0101,0 0.3367,0 0.6734,0 1.0102,0 0.3367,0 0.7089,0.15058 1.0101,0 0.4259,-0.21296 0.5842,-0.7972 1.0102,-1.01015 0.3011,-0.15059 0.6734,0 1.0101,0 0.6735,0 1.3469,0 2.0203,0 0.6735,0 1.3815,0.21295 2.0203,0 2.0102,-0.67006 0.4714,-0.94281 1.0102,-2.02031 0.6863,-1.37271 1.3339,-0.64759 2.0203,-2.0203 0.1506,-0.30117 -0.1506,-0.70899 0,-1.01016 0.2129,-0.42592 0.7972,-0.58423 1.0101,-1.01015 0.1506,-0.30117 0,-0.67343 0,-1.01015 0,-0.33672 0,-0.67344 0,-1.01015 0,-0.33672 -0.1064,-0.69072 0,-1.01016 0.2381,-0.71428 0.7721,-1.30602 1.0102,-2.0203 0.1065,-0.31944 -0.2381,-0.77206 0,-1.01016 0.2381,-0.23809 0.772,0.2381 1.0101,0 0.2381,-0.23809 0,-0.67343 0,-1.01015 0,-1.01015 0,-2.0203 0,-3.03046 0,-0.33671 -0.3367,-1.01015 0,-1.01015 0.3368,0 0,0.67344 0,1.01015"
       id="path3762" />
    <path
       style="fill:none;stroke:#000000;stroke-width:5;stroke-linecap:butt;stroke-linejoin:miter;stroke-miterlimit:4;stroke-opacity:1;stroke-dasharray:none"
       d="m -81.822354,-155.78026 c 1.01015,0 2.0203,0 3.03045,0 0.33672,0 0.77206,0.2381 1.01016,0 0.53239,-0.53239 0.67343,-1.34687 1.01015,-2.0203 0.33672,-0.67344 0.47775,-1.48791 1.01015,-2.02031 0.2381,-0.23809 0.85957,0.30117 1.01015,0 0.30117,-0.60234 -0.21296,-1.38143 0,-2.0203 -0.37756,-2.20063 1.68359,-0.33672 2.02031,-1.01015 0.30117,-0.60234 0,-1.34687 0,-2.02031 0,-0.33672 -0.15059,-0.70898 0,-1.01015 0.21296,-0.42592 0.79719,-0.58424 1.01015,-1.01015 0.15059,-0.30117 0,-0.67344 0,-1.01016 0,-1.01015 0,-2.0203 0,-3.03045 0,-0.33672 0,-0.67344 0,-1.01016 0,-0.33671 -0.15058,-0.70898 0,-1.01015 0.21296,-0.42592 0.85957,-0.5584 1.01015,-1.01015 0.145,-0.43498 -0.15038,-3.73984 0,-4.04061 0.15059,-0.30117 0.77206,0.23809 1.01016,0 0.23809,-0.2381 0,-0.67344 0,-1.01016 0,-1.68359 0,-3.36717 0,-5.05076 0,-0.33672 0,-0.67344 0,-1.01015 0,-0.33672 -0.15059,-0.70899 0,-1.01016 0.21296,-0.42592 0.79719,-0.58423 1.01015,-1.01015 0.15058,-0.30117 -0.2381,-0.77206 0,-1.01015 0.23809,-0.2381 0.77206,0.23809 1.01015,0 0.2381,-0.2381 -0.23809,-0.77206 0,-1.01016 0.2381,-0.23809 0.77206,0.2381 1.01015,0 0.2381,-0.23809 -0.33671,-1.01015 0,-1.01015 0.33672,0 0,0.67344 0,1.01015"
       id="path4523" />
    <path
       style="fill:none;stroke:#000000;stroke-width:5;stroke-linecap:butt;stroke-linejoin:miter;stroke-miterlimit:4;stroke-opacity:1;stroke-dasharray:none"
       d="m -507.36755,-175.03685 c 1.01015,0 2.0203,0 3.03045,0 0.33672,0 0.77206,0.2381 1.01016,0 0.53239,-0.53239 0.67343,-1.34687 1.01015,-2.0203 0.33672,-0.67344 0.47775,-1.48791 1.01015,-2.02031 0.2381,-0.23809 0.85957,0.30117 1.01015,0 0.30117,-0.60234 -0.21296,-1.38143 0,-2.0203 -0.37756,-2.20063 1.68359,-0.33672 2.02031,-1.01015 0.30117,-0.60234 0,-1.34687 0,-2.02031 0,-0.33672 -0.15059,-0.70898 0,-1.01015 0.21296,-0.42592 0.79719,-0.58424 1.01015,-1.01015 0.15059,-0.30117 0,-0.67344 0,-1.01016 0,-1.01015 0,-2.0203 0,-3.03045 0,-0.33672 0,-0.67344 0,-1.01016 0,-0.33671 -0.15058,-0.70898 0,-1.01015 0.21296,-0.42592 0.85957,-0.5584 1.01015,-1.01015 0.145,-0.43498 -0.15038,-3.73984 0,-4.04061 0.15059,-0.30117 0.77206,0.23809 1.01016,0 0.23809,-0.2381 0,-0.67344 0,-1.01016 0,-1.68359 0,-3.36717 0,-5.05076 0,-0.33672 0,-0.67344 0,-1.01015 0,-0.33672 -0.15059,-0.70899 0,-1.01016 0.21296,-0.42592 0.79719,-0.58423 1.01015,-1.01015 0.15058,-0.30117 -0.2381,-0.77206 0,-1.01015 0.23809,-0.2381 0.77206,0.23809 1.01015,0 0.2381,-0.2381 -0.23809,-0.77206 0,-1.01016 0.2381,-0.23809 0.77206,0.2381 1.01015,0 0.2381,-0.23809 -0.33671,-1.01015 0,-1.01015 0.33672,0 0,0.67344 0,1.01015"
       id="path3687" />
    <path
       style="fill:none;stroke:#000000;stroke-width:5;stroke-linecap:butt;stroke-linejoin:miter;stroke-miterlimit:4;stroke-opacity:1;stroke-dasharray:none"
       d="m -1127.3676,-183.60827 c 1.0102,0 2.0203,0 3.0305,0 0.3367,0 0.7721,0.2381 1.0102,0 0.5323,-0.53239 0.6734,-1.34687 1.0101,-2.0203 0.3367,-0.67344 0.4778,-1.48791 1.0102,-2.02031 0.2381,-0.23809 0.8595,0.30117 1.0101,0 0.3012,-0.60234 -0.213,-1.38143 0,-2.0203 -0.3776,-2.20063 1.6836,-0.33672 2.0203,-1.01015 0.3012,-0.60234 0,-1.34687 0,-2.02031 0,-0.33672 -0.1506,-0.70898 0,-1.01015 0.213,-0.42592 0.7972,-0.58424 1.0102,-1.01015 0.1506,-0.30117 0,-0.67344 0,-1.01016 0,-1.01015 0,-2.0203 0,-3.03045 0,-0.33672 0,-0.67344 0,-1.01016 0,-0.33671 -0.1506,-0.70898 0,-1.01015 0.2129,-0.42592 0.8595,-0.5584 1.0101,-1.01015 0.145,-0.43498 -0.1504,-3.73985 0,-4.04062 0.1506,-0.30117 0.7721,0.23809 1.0102,0 0.2381,-0.2381 0,-0.67344 0,-1.01016 0,-1.68359 0,-3.36717 0,-5.05076 0,-0.33672 0,-0.67344 0,-1.01015 0,-0.33672 -0.1506,-0.70899 0,-1.01016 0.2129,-0.42592 0.7972,-0.58423 1.0101,-1.01015 0.1506,-0.30117 -0.2381,-0.77206 0,-1.01015 0.2381,-0.2381 0.7721,0.23809 1.0102,0 0.2381,-0.2381 -0.2381,-0.77206 0,-1.01016 0.2381,-0.23809 0.772,0.2381 1.0101,0 0.2381,-0.23809 -0.3367,-1.01015 0,-1.01015 0.3367,0 0,0.67344 0,1.01015"
       id="path3764" />
    <path
       style="fill:none;stroke:#000000;stroke-width:5;stroke-linecap:butt;stroke-linejoin:miter;stroke-miterlimit:4;stroke-opacity:1;stroke-dasharray:none"
       d="m -53.538094,-116.38431 c 0.63888,-0.21296 1.38143,0.21296 2.02031,0 0.71428,-0.23809 1.39383,-0.5925 2.0203,-1.01015 0.39622,-0.26414 0.58424,-0.79719 1.01016,-1.01015 0.30116,-0.15059 0.72998,0.18677 1.01015,0 0.79243,-0.52829 1.22787,-1.49202 2.0203,-2.02031 0.28017,-0.18678 0.67344,0 1.01016,0 0.33671,0 0.67343,0 1.01015,0 0.33672,0 0.70898,0.15059 1.01015,0 0.42592,-0.21296 0.58424,-0.79719 1.01015,-1.01015 0.30117,-0.15059 0.67344,0 1.01016,0 2.69374,0 5.38748,0 8.08122,0 0.67343,0 1.41796,-0.30117 2.0203,0 0.30117,0.15058 -0.23809,0.77206 0,1.01015 0.2381,0.2381 0.67344,0 1.01015,0 1.01016,0 2.02031,0 3.03046,0 0.33672,0 0.67344,0 1.01015,0 0.33672,0 0.69072,-0.10648 1.01016,0 0.67343,0.33672 1.34687,0.67344 2.0203,1.01015 0,0.33672 -0.23809,0.77206 0,1.01016 0.2381,0.23809 0.77206,-0.2381 1.01015,0 0.2381,0.23809 -0.23809,0.77205 0,1.01015 0.2381,0.2381 0.70899,-0.15058 1.01016,0 0.85183,0.42592 1.16847,1.59439 2.0203,2.0203 0.30117,0.15059 0.67344,0 1.01015,0 1.01016,0 2.02031,0 3.03046,0 0.33672,0 0.69072,-0.10647 1.01015,0 0.71429,0.2381 1.30602,0.77206 2.02031,1.01016 0.31944,0.10648 0.67343,0 1.01015,0 1.0101497,0 2.0203097,0 3.0304597,0 0.33672,0 0.70898,0.15058 1.01015,0 0.85184,-0.42592 1.16847,-1.59439 2.02031,-2.02031 0.30117,-0.15058 0.67343,0 1.01015,0"
       id="path4525" />
    <path
       style="fill:none;stroke:#000000;stroke-width:5;stroke-linecap:butt;stroke-linejoin:miter;stroke-miterlimit:4;stroke-opacity:1;stroke-dasharray:none"
       d="m -479.08329,-135.6409 c 0.63888,-0.21296 1.38143,0.21296 2.02031,0 0.71428,-0.23809 1.39383,-0.5925 2.0203,-1.01015 0.39622,-0.26414 0.58424,-0.79719 1.01016,-1.01015 0.30116,-0.15059 0.72998,0.18677 1.01015,0 0.79243,-0.52829 1.22787,-1.49202 2.0203,-2.02031 0.28017,-0.18678 0.67344,0 1.01016,0 0.33671,0 0.67343,0 1.01015,0 0.33672,0 0.70898,0.15059 1.01015,0 0.42592,-0.21296 0.58424,-0.79719 1.01015,-1.01015 0.30117,-0.15059 0.67344,0 1.01016,0 2.69374,0 5.38748,0 8.08122,0 0.67343,0 1.41796,-0.30117 2.0203,0 0.30117,0.15058 -0.23809,0.77206 0,1.01015 0.2381,0.2381 0.67344,0 1.01015,0 1.01016,0 2.02031,0 3.03046,0 0.33672,0 0.67344,0 1.01015,0 0.33672,0 0.69072,-0.10648 1.01016,0 0.67343,0.33672 1.34687,0.67344 2.0203,1.01015 0,0.33672 -0.23809,0.77206 0,1.01016 0.2381,0.23809 0.77206,-0.2381 1.01015,0 0.2381,0.23809 -0.23809,0.77205 0,1.01015 0.2381,0.2381 0.70899,-0.15058 1.01016,0 0.85183,0.42592 1.16847,1.59439 2.0203,2.0203 0.30117,0.15059 0.67344,0 1.01015,0 1.01016,0 2.02031,0 3.03046,0 0.33672,0 0.69072,-0.10647 1.01015,0 0.71429,0.2381 1.30602,0.77206 2.02031,1.01016 0.31944,0.10648 0.67343,0 1.01015,0 1.01015,0 2.02031,0 3.03046,0 0.33672,0 0.70898,0.15058 1.01015,0 0.85184,-0.42592 1.16847,-1.59439 2.02031,-2.02031 0.30117,-0.15058 0.67343,0 1.01015,0"
       id="path3689" />
    <path
       style="fill:none;stroke:#000000;stroke-width:5;stroke-linecap:butt;stroke-linejoin:miter;stroke-miterlimit:4;stroke-opacity:1;stroke-dasharray:none"
       d="m -1099.0833,-144.21232 c 0.6389,-0.21296 1.3814,0.21296 2.0203,0 0.7143,-0.23809 1.3938,-0.5925 2.0203,-1.01015 0.3962,-0.26414 0.5843,-0.79719 1.0102,-1.01015 0.3011,-0.15059 0.73,0.18677 1.0101,0 0.7925,-0.52829 1.2279,-1.49202 2.0203,-2.02031 0.2802,-0.18678 0.6735,0 1.0102,0 0.3367,0 0.6734,0 1.0101,0 0.3368,0 0.709,0.15059 1.0102,0 0.4259,-0.21296 0.5842,-0.79719 1.0101,-1.01015 0.3012,-0.15059 0.6735,0 1.0102,0 2.6937,0 5.3875,0 8.0812,0 0.6734,0 1.418,-0.30117 2.0203,0 0.3012,0.15058 -0.2381,0.77206 0,1.01015 0.2381,0.2381 0.6735,0 1.0102,0 1.0101,0 2.0203,0 3.0304,0 0.3367,0 0.6735,0 1.0102,0 0.3367,0 0.6907,-0.10648 1.0101,0 0.6735,0.33672 1.3469,0.67344 2.0203,1.01015 0,0.33672 -0.2381,0.77206 0,1.01016 0.2381,0.23809 0.7721,-0.2381 1.0102,0 0.2381,0.23809 -0.2381,0.77205 0,1.01015 0.2381,0.2381 0.709,-0.15058 1.0101,0 0.8519,0.42592 1.1685,1.59439 2.0203,2.0203 0.3012,0.15059 0.6735,0 1.0102,0 1.0102,0 2.0203,0 3.0305,0 0.3367,0 0.6907,-0.10647 1.0101,0 0.7143,0.2381 1.306,0.77206 2.0203,1.01016 0.3195,0.10648 0.6734,0 1.0102,0 1.0101,0 2.0203,0 3.0304,0 0.3367,0 0.709,0.15058 1.0102,0 0.8518,-0.42592 1.1684,-1.59439 2.0203,-2.02031 0.3012,-0.15058 0.6734,0 1.0101,0"
       id="path3766" />
    <path
       style="fill:none;stroke:#000000;stroke-width:5;stroke-linecap:butt;stroke-linejoin:miter;stroke-miterlimit:4;stroke-opacity:1;stroke-dasharray:none"
       d="m -115.15739,-172.95285 c 0.33672,-0.33672 0.58423,-0.7972 1.01015,-1.01016 0.30117,-0.15058 0.70899,0.15059 1.01015,0 0.85184,-0.42591 1.16847,-1.59438 2.02031,-2.0203 0.30117,-0.15059 0.70898,0.15058 1.01015,0 0.42592,-0.21296 0.58424,-0.7972 1.01015,-1.01015 0.30117,-0.15059 0.67344,0 1.01016,0 0.33671,0 0.67343,0 1.01015,0 0.33672,0 0.77206,0.23809 1.01015,0 0.2381,-0.2381 -0.23809,-0.77206 0,-1.01016 0.2381,-0.23809 0.77206,0.2381 1.01016,0 2.09004,-2.09004 -3.19387,0.0817 1.01015,-2.0203 0.30117,-0.15059 0.77205,0.23809 1.01015,0 0.2381,-0.2381 -0.2381,-0.77206 0,-1.01015 0.2381,-0.2381 0.70898,0.15058 1.01015,0 2.233506,-1.11676 0.31347,-0.62695 1.01016,-2.02031 0.21295,-0.42592 0.85956,-0.5584 1.01015,-1.01015 0.212956,-0.63888 0,-1.34687 0,-2.02031 0,-0.33671 0,-0.67343 0,-1.01015 0,-0.33672 0,-0.67343 0,-1.01015 0,-0.33672 0.150576,-0.70899 0,-1.01015 -0.21296,-0.42592 -0.7972,-0.58424 -1.01015,-1.01016 -0.15059,-0.30117 0,-0.67343 0,-1.01015 0,-0.67434 0,-1.34596 0,-2.0203"
       id="path4527" />
    <path
       style="fill:none;stroke:#000000;stroke-width:5;stroke-linecap:butt;stroke-linejoin:miter;stroke-miterlimit:4;stroke-opacity:1;stroke-dasharray:none"
       d="m -540.70259,-192.20944 c 0.33672,-0.33672 0.58423,-0.7972 1.01015,-1.01016 0.30117,-0.15058 0.70899,0.15059 1.01015,0 0.85184,-0.42591 1.16847,-1.59438 2.02031,-2.0203 0.30117,-0.15059 0.70898,0.15058 1.01015,0 0.42592,-0.21296 0.58424,-0.7972 1.01015,-1.01015 0.30117,-0.15059 0.67344,0 1.01016,0 0.33671,0 0.67343,0 1.01015,0 0.33672,0 0.77206,0.23809 1.01015,0 0.2381,-0.2381 -0.23809,-0.77206 0,-1.01016 0.2381,-0.23809 0.77206,0.2381 1.01016,0 2.09004,-2.09004 -3.19387,0.0817 1.01015,-2.0203 0.30117,-0.15059 0.77205,0.23809 1.01015,0 0.2381,-0.2381 -0.2381,-0.77206 0,-1.01015 0.2381,-0.2381 0.70898,0.15058 1.01015,0 2.23351,-1.11676 0.31347,-0.62695 1.01016,-2.02031 0.21295,-0.42592 0.85956,-0.5584 1.01015,-1.01015 0.21296,-0.63888 0,-1.34687 0,-2.02031 0,-0.33671 0,-0.67343 0,-1.01015 0,-0.33672 0,-0.67343 0,-1.01015 0,-0.33672 0.15058,-0.70899 0,-1.01015 -0.21296,-0.42592 -0.7972,-0.58424 -1.01015,-1.01016 -0.15059,-0.30117 0,-0.67343 0,-1.01015 0,-0.67434 0,-1.34596 0,-2.0203"
       id="path3691" />
    <path
       style="fill:none;stroke:#000000;stroke-width:5;stroke-linecap:butt;stroke-linejoin:miter;stroke-miterlimit:4;stroke-opacity:1;stroke-dasharray:none"
       d="m -1160.7026,-200.78086 c 0.3367,-0.33672 0.5842,-0.7972 1.0102,-1.01016 0.3011,-0.15058 0.7089,0.15059 1.0101,0 0.8518,-0.42591 1.1685,-1.59439 2.0203,-2.02031 0.3012,-0.15059 0.709,0.15058 1.0102,0 0.4259,-0.21296 0.5842,-0.7972 1.0101,-1.01015 0.3012,-0.15059 0.6735,0 1.0102,0 0.3367,0 0.6734,0 1.0101,0 0.3367,0 0.7721,0.23809 1.0102,0 0.2381,-0.2381 -0.2381,-0.77206 0,-1.01016 0.2381,-0.23809 0.772,0.2381 1.0101,0 2.0901,-2.09004 -3.1938,0.0817 1.0102,-2.0203 0.3012,-0.15059 0.772,0.23809 1.0101,0 0.2381,-0.2381 -0.2381,-0.77206 0,-1.01015 0.2381,-0.2381 0.709,0.15058 1.0102,0 2.2335,-1.11676 0.3135,-0.62695 1.0101,-2.02031 0.213,-0.42592 0.8596,-0.5584 1.0102,-1.01015 0.213,-0.63888 0,-1.34687 0,-2.02031 0,-0.33671 0,-0.67343 0,-1.01015 0,-0.33672 0,-0.67343 0,-1.01015 0,-0.33672 0.1506,-0.70899 0,-1.01015 -0.213,-0.42592 -0.7972,-0.58424 -1.0102,-1.01016 -0.1505,-0.30117 0,-0.67343 0,-1.01015 0,-0.67434 0,-1.34596 0,-2.0203"
       id="path3768" />
    <path
       sodipodi:nodetypes="cccsccccccc"
       id="path3693"
       d="m -612.42342,40.12563 62.62946,0 29.29442,-14.14214 c 10.32616,0 20.53688,-0.40248 26.64215,6.92437 4.81357,5.7767 -1.38834,32.41136 -1.38834,40.5528 l 0,171.72593 c 0,18.46761 -14.86742,33.33504 -33.33503,33.33504 l -83.84266,0 c -18.46761,0 -33.33503,-14.86743 -33.33503,-33.33504 l 35.35534,-158.59395 c 0,-18.4676 -20.48792,-46.46701 -2.02031,-46.46701 z"
       style="fill:#445500;stroke:#000000;stroke-width:5;stroke-linecap:butt;stroke-linejoin:miter;stroke-miterlimit:4;stroke-opacity:1;stroke-dashoffset:0" />
    <rect
       transform="matrix(0.99785137,-0.06551828,0.06551828,0.99785137,0,0)"
       ry="17.134157"
       y="268.2384"
       x="-1188.1055"
       height="201.42857"
       width="45.714287"
       id="rect3770"
       style="fill:#ac9d93;fill-opacity:1;fill-rule:evenodd;stroke:#000000;stroke-width:5;stroke-miterlimit:4;stroke-opacity:1;stroke-dasharray:none" />
    <rect
       style="fill:#ac9d93;fill-opacity:1;fill-rule:evenodd;stroke:#000000;stroke-width:5;stroke-miterlimit:4;stroke-opacity:1;stroke-dasharray:none"
       id="rect3772"
       width="45.714287"
       height="201.42857"
       x="-1217.884"
       y="474.58929"
       ry="17.134157"
       transform="matrix(0.99453231,0.10442932,-0.10442932,0.99453231,0,0)" />
    <path
       sodipodi:nodetypes="cccccccccccccccc"
       id="path3774"
       d="m -1239.5286,228.84171 101.8362,0 c 9.4805,0 17.1128,7.63228 17.1128,17.11273 l 17.1428,260.44249 c 0,9.48045 -19.7751,2.82702 -29.2556,2.82702 l -13.9287,-45.53919 -17.6646,35.53919 -31.4286,-195.71429 -8.4578,71.8911 -2.9205,24.82448 -3.2618,27.7255 -8.217,69.84464 -20.9572,1.42857 c -9.4804,0 -52.827,20.22486 -52.827,10.74441 l 35.7143,-264.01392 c 0,-9.48045 7.6323,-17.11273 17.1127,-17.11273 z"
       style="fill:#214478;stroke:#000000;stroke-width:5.33865213;stroke-linecap:butt;stroke-linejoin:miter;stroke-miterlimit:4;stroke-opacity:1;stroke-dashoffset:0" />
    <path
       sodipodi:nodetypes="cccsccccccc"
       id="path3776"
       d="m -1232.4234,31.554206 62.6294,0 29.2945,-14.14214 c 10.3261,0 20.5368,-0.40248 26.6421,6.92437 4.8136,5.7767 -1.3883,32.41136 -1.3883,40.5528 l 0,171.725934 c 0,18.46761 -14.8675,33.33504 -33.3351,33.33504 l -83.8426,0 c -18.4676,0 -33.3351,-14.86743 -33.3351,-33.33504 l 35.3554,-158.593954 c 0,-18.4676 -20.4879,-46.46701 -2.0203,-46.46701 z"
       style="fill:#445500;stroke:#000000;stroke-width:5;stroke-linecap:butt;stroke-linejoin:miter;stroke-miterlimit:4;stroke-opacity:1;stroke-dashoffset:0" />
    <rect
       style="fill:#ac9d93;fill-opacity:1;fill-rule:evenodd;stroke:#000000;stroke-width:4.46450043;stroke-linecap:butt;stroke-linejoin:miter;stroke-miterlimit:4;stroke-opacity:1;stroke-dasharray:none;stroke-dashoffset:0"
       id="rect3695"
       width="156.16397"
       height="34.268314"
       x="-764.13434"
       y="-57.212463"
       ry="17.134157"
       transform="matrix(0.98501791,-0.17245206,0.3978842,0.91743564,0,0)" />
    <rect
       style="fill:#ac9d93;fill-opacity:1;fill-rule:evenodd;stroke:#000000;stroke-width:4.46450043;stroke-linecap:butt;stroke-linejoin:miter;stroke-miterlimit:4;stroke-opacity:1;stroke-dasharray:none;stroke-dashoffset:0"
       id="rect3778"
       width="156.16397"
       height="34.268314"
       x="-1345.6379"
       y="-175.86156"
       ry="17.134157"
       transform="matrix(0.98501791,-0.17245206,0.3978842,0.91743564,0,0)" />
    <rect
       transform="matrix(0.91486743,-0.40375437,0.60638611,0.79517035,0,0)"
       ry="17.134157"
       y="-165.40756"
       x="-632.10229"
       height="34.268314"
       width="156.16397"
       id="rect3697"
       style="fill:#ac9d93;fill-opacity:1;fill-rule:evenodd;stroke:#000000;stroke-width:4.46450043;stroke-linecap:butt;stroke-linejoin:miter;stroke-miterlimit:4;stroke-opacity:1;stroke-dasharray:none;stroke-dashoffset:0" />
    <rect
       transform="matrix(0.91486743,-0.40375437,0.60638611,0.79517035,0,0)"
       ry="17.134157"
       y="-430.93027"
       x="-1133.8042"
       height="34.268314"
       width="156.16397"
       id="rect3780"
       style="fill:#ac9d93;fill-opacity:1;fill-rule:evenodd;stroke:#000000;stroke-width:4.46450043;stroke-linecap:butt;stroke-linejoin:miter;stroke-miterlimit:4;stroke-opacity:1;stroke-dasharray:none;stroke-dashoffset:0" />
    <path
       sodipodi:nodetypes="csccssssccscc"
       id="path3699"
       d="m -615.81281,67.09553 c 1.18856,6.40777 8.29226,16.20622 4.92044,21.18616 -3.43236,5.06937 -17.40869,5.27375 -23.93153,6.48366 l -54.62661,10.13255 c -5.90738,1.09575 -14.21702,15.07352 -18.9864,12.24143 -5.67029,-3.36704 -7.3807,-24.22929 -8.68343,-31.25252 -0.56756,-3.05988 12.676,-8.21666 10.07933,-11.20366 -2.97648,-3.42391 -21.69204,-4.63108 -19.79517,-7.32162 3.44135,-4.88124 22.36364,-7.96423 28.72695,-9.14455 l 54.6266,-10.13255 c 6.39072,-1.1854 22.33216,-10.28881 23.67176,-4.44228 2.05912,8.98691 2.78498,16.91345 3.99805,23.45334 l 10e-6,4e-5 z"
       style="fill:#445500;stroke:#000000;stroke-width:5;stroke-linecap:butt;stroke-linejoin:miter;stroke-miterlimit:4;stroke-opacity:1;stroke-dashoffset:0" />
    <path
       sodipodi:nodetypes="csccssssccscc"
       id="path3782"
       d="m -1235.8128,58.524106 c 1.1885,6.40777 8.2922,16.20622 4.9204,21.18616 -3.4323,5.06937 -17.4087,5.27375 -23.9315,6.48366 l -54.6266,10.13255 c -5.9074,1.09575 -14.217,15.073524 -18.9864,12.241434 -5.6703,-3.36704 -7.3807,-24.229294 -8.6834,-31.252524 -0.5676,-3.05988 12.676,-8.21666 10.0793,-11.20366 -2.9765,-3.42391 -21.6921,-4.63108 -19.7952,-7.32162 3.4414,-4.88124 22.3637,-7.96423 28.727,-9.14455 l 54.6266,-10.13255 c 6.3907,-1.1854 22.3321,-10.28881 23.6717,-4.44228 2.0591,8.98691 2.785,16.91345 3.9981,23.45334 l 0,4e-5 z"
       style="fill:#445500;stroke:#000000;stroke-width:5;stroke-linecap:butt;stroke-linejoin:miter;stroke-miterlimit:4;stroke-opacity:1;stroke-dashoffset:0" />
    <path
       sodipodi:nodetypes="csccsssccsc"
       id="path3701"
       d="m -504.9677,61.05558 c 4.05755,8.35455 6.34201,20.89628 1.08985,27.78728 -2.18474,2.86644 -8.59732,2.24904 -12.07256,3.93686 l -49.97609,24.27191 c -6.39565,3.10618 -6.9032,14.71806 -12.96014,12.18875 -5.14635,-2.14905 -16.1248,-17.73732 -18.76399,-23.17145 -2.6468,-5.44977 -11.59394,-16.50223 -7.08252,-19.80798 11.3619,-8.32544 11.68518,-8.81757 18.06521,-11.91616 l 49.97609,-24.27191 c 6.0186,-2.92305 20.21365,-13.69768 26.02077,-11.59951 5.60699,2.02587 2.88105,16.77102 5.70338,22.58221 z"
       style="fill:#445500;stroke:#000000;stroke-width:5;stroke-linecap:butt;stroke-linejoin:miter;stroke-miterlimit:4;stroke-opacity:1;stroke-dashoffset:0" />
    <path
       sodipodi:nodetypes="csccsssccsc"
       id="path3784"
       d="m -1124.9677,52.484156 c 4.0575,8.35455 6.342,20.89628 1.0898,27.78728 -2.1847,2.86644 -8.5973,2.24904 -12.0725,3.93686 l -49.9761,24.271914 c -6.3957,3.10618 -6.9032,14.71806 -12.9601,12.18875 -5.1464,-2.14905 -16.1248,-17.73732 -18.764,-23.171454 -2.6468,-5.44977 -11.594,-16.50223 -7.0826,-19.80798 11.3619,-8.32544 11.6852,-8.81757 18.0653,-11.91616 l 49.976,-24.27191 c 6.0186,-2.92305 20.2137,-13.69768 26.0208,-11.59951 5.607,2.02587 2.8811,16.77102 5.7034,22.58221 z"
       style="fill:#445500;stroke:#000000;stroke-width:5;stroke-linecap:butt;stroke-linejoin:miter;stroke-miterlimit:4;stroke-opacity:1;stroke-dashoffset:0" />
    <g
       id="g3786"
       transform="matrix(0.18491957,0,0,0.18491957,297.32161,216.16436)"
       inkscape:export-filename="D:\Repos\ruby\gubby-gosu\examples\brains\assets\zombie.png"
       inkscape:export-xdpi="90"
       inkscape:export-ydpi="90">
      <path
         style="fill:#ac9d93;fill-opacity:1;stroke:#000000;stroke-width:5;stroke-linecap:butt;stroke-linejoin:miter;stroke-miterlimit:4;stroke-opacity:1;stroke-dashoffset:0"
         d="m 470.47719,242.77463 c 0,65.99463 -50.10725,119.4938 -111.91765,119.4938 -15.64032,0 -89.2828,-9.63899 -99.3445,-23.31729 -9.49001,-12.90118 88.25886,13.56149 122.51255,-4.48614 20.87567,-10.99901 -13.58016,-67.73827 -18.13371,-75.23299 -11.35978,-18.6971 -116.95199,7.48902 -116.95199,-16.45738 0,-7.46487 10.3066,-32.2314 15.78676,-23.73712 9.80762,15.20179 46.5025,16.66062 57.29322,1.8739 14.06188,-19.26924 13.46044,-49.05019 -6.22733,-62.37127 -16.63449,-11.25521 33.81441,-35.25931 45.065,-35.25931 61.8104,0 111.91765,53.49921 111.91765,119.4938 z"
         id="path4412"
         sodipodi:nodetypes="csssssssssc" />
      <path
         style="fill:#ffffff;stroke:#000000;stroke-width:5;stroke-linecap:butt;stroke-linejoin:miter;stroke-miterlimit:4;stroke-opacity:1;stroke-dashoffset:0"
         d="m 330.78035,190.75179 c 0,22.03672 -17.63817,39.90101 -39.39595,39.90101 -21.75778,0 -39.39595,-17.86429 -39.39595,-39.90101 0,-22.03673 17.63817,-39.90102 39.39595,-39.90102 21.75778,0 39.39595,17.86429 39.39595,39.90102 z"
         id="path4414" />
      <path
         style="fill:#ffffff;stroke:#000000;stroke-width:5;stroke-linecap:butt;stroke-linejoin:miter;stroke-miterlimit:4;stroke-opacity:1;stroke-dashoffset:0"
         d="m 426.74484,203.3787 c 0,17.29463 -14.24621,31.31472 -31.8198,31.31472 -17.5736,0 -31.81981,-14.02009 -31.81981,-31.31472 0,-17.29465 14.24621,-31.31473 31.81981,-31.31473 17.57359,0 31.8198,14.02008 31.8198,31.31473 z"
         id="path4416" />
      <path
         transform="translate(413.61286,-16.617806)"
         d="m -105.05587,186.15637 c 0,6.41576 -4.74873,11.61676 -10.6066,11.61676 -5.85786,0 -10.6066,-5.201 -10.6066,-11.61676 0,-6.41575 4.74874,-11.61675 10.6066,-11.61675 5.85787,0 10.6066,5.201 10.6066,11.61675 z"
         sodipodi:ry="11.616755"
         sodipodi:rx="10.606602"
         sodipodi:cy="186.15637"
         sodipodi:cx="-115.66247"
         id="path4418"
         style="fill:#008080;stroke:#000000;stroke-width:5;stroke-linecap:butt;stroke-linejoin:miter;stroke-miterlimit:4;stroke-opacity:1;stroke-dasharray:none;stroke-dashoffset:0"
         sodipodi:type="arc" />
      <path
         sodipodi:type="arc"
         style="fill:#008080;stroke:#000000;stroke-width:5;stroke-linecap:butt;stroke-linejoin:miter;stroke-miterlimit:4;stroke-opacity:1;stroke-dasharray:none;stroke-dashoffset:0"
         id="path4420"
         sodipodi:cx="-115.66247"
         sodipodi:cy="186.15637"
         sodipodi:rx="10.606602"
         sodipodi:ry="11.616755"
         d="m -105.05587,186.15637 c 0,6.41576 -4.74873,11.61676 -10.6066,11.61676 -5.85786,0 -10.6066,-5.201 -10.6066,-11.61676 0,-6.41575 4.74874,-11.61675 10.6066,-11.61675 5.85787,0 10.6066,5.201 10.6066,11.61675 z"
         transform="translate(502.50628,16.717224)" />
      <path
         d="m -204.05082,140.19443 c 0,2.78946 -2.2613,5.05076 -5.05076,5.05076 -2.78946,0 -5.05076,-2.2613 -5.05076,-5.05076 0,-2.78946 2.2613,-5.05077 5.05076,-5.05077 2.78946,0 5.05076,2.26131 5.05076,5.05077 z"
         sodipodi:ry="5.0507627"
         sodipodi:rx="5.0507627"
         sodipodi:cy="140.19443"
         sodipodi:cx="-209.10158"
         id="path4422"
         style="fill:#1a1a1a;stroke:#000000;stroke-width:5;stroke-linecap:butt;stroke-linejoin:miter;stroke-miterlimit:4;stroke-opacity:1;stroke-dasharray:none;stroke-dashoffset:0"
         sodipodi:type="arc"
         transform="translate(540.89208,87.427914)" />
      <path
         d="m -204.05082,140.19443 c 0,2.78946 -2.2613,5.05076 -5.05076,5.05076 -2.78946,0 -5.05076,-2.2613 -5.05076,-5.05076 0,-2.78946 2.2613,-5.05077 5.05076,-5.05077 2.78946,0 5.05076,2.26131 5.05076,5.05077 z"
         sodipodi:ry="5.0507627"
         sodipodi:rx="5.0507627"
         sodipodi:cy="140.19443"
         sodipodi:cx="-209.10158"
         id="path4424"
         style="fill:#1a1a1a;stroke:#000000;stroke-width:5;stroke-linecap:butt;stroke-linejoin:miter;stroke-miterlimit:4;stroke-opacity:1;stroke-dasharray:none;stroke-dashoffset:0"
         sodipodi:type="arc"
         transform="translate(558.06468,90.458364)" />
      <path
         style="fill:#deaa87;stroke:#000000;stroke-width:2.77287626;stroke-linecap:butt;stroke-linejoin:miter;stroke-miterlimit:4;stroke-opacity:1;stroke-dashoffset:0"
         d="m 279.41729,256.69775 14.77939,-4.17989 5.00462,17.69549 -14.7794,4.17989 -1.76832,-6.2525 3.55897,-3.47074 -4.58837,-0.16904 -2.20689,-7.80321 z"
         id="path4426"
         sodipodi:nodetypes="cccccccc" />
      <path
         style="fill:#deaa87;stroke:#000000;stroke-width:2.77287626;stroke-linecap:butt;stroke-linejoin:miter;stroke-miterlimit:4;stroke-opacity:1;stroke-dashoffset:0"
         d="m 253.27921,319.50709 14.47186,-5.14465 5.66732,5.53883 0.4924,11.78842 -14.47186,5.14465 -6.15972,-17.32725 z"
         id="path4428"
         sodipodi:nodetypes="cccccc" />
      <path
         style="fill:#deaa87;stroke:#000000;stroke-width:2.77287626;stroke-linecap:butt;stroke-linejoin:miter;stroke-miterlimit:4;stroke-opacity:1;stroke-dashoffset:0"
         d="m 285.20117,318.54646 3.91039,0 4.48255,4.73509 0.31568,-4.73509 6.65049,0 0,18.38956 -15.35911,0 0,-18.38956 z"
         id="path4430"
         sodipodi:nodetypes="cccccccc" />
      <path
         style="fill:#deaa87;stroke:#000000;stroke-width:2.77287626;stroke-linecap:butt;stroke-linejoin:miter;stroke-miterlimit:4;stroke-opacity:1;stroke-dashoffset:0"
         d="m 345.26672,253.88903 14.7286,4.35552 -1.95198,6.60078 -5.1357,0.47997 3.68872,4.41313 -1.81594,6.14078 -4.61951,-1.36608 -3.1928,1.88976 -1.39939,-3.24775 -5.5169,-1.63145 -0.14568,-11.46311 5.36058,-6.17155 z"
         id="path4432"
         sodipodi:nodetypes="cccccccccccc" />
      <path
         style="fill:#deaa87;stroke:#000000;stroke-width:3.34064388;stroke-linecap:butt;stroke-linejoin:miter;stroke-miterlimit:4;stroke-opacity:1;stroke-dashoffset:0"
         d="m 315.07534,252.26872 13.20267,2.0623 -2.50612,16.04398 -3.10128,3.86382 0.87267,10.40357 -10.29848,-4.96648 1.83054,-27.40719 z"
         id="path4434"
         sodipodi:nodetypes="ccccccc" />
      <path
         style="fill:#deaa87;stroke:#000000;stroke-width:3.38157177;stroke-linecap:butt;stroke-linejoin:miter;stroke-miterlimit:4;stroke-opacity:1;stroke-dashoffset:0"
         d="m 321.88557,315.6541 18.90097,2.26446 -2.62495,21.9099 -18.90097,-2.26446 0.42208,-3.52295 3.2374,-3.10661 -2.4191,-3.72355 1.38457,-11.55679 z"
         id="path4436"
         sodipodi:nodetypes="cccccccc" />
      <path
         style="fill:#deaa87;stroke:#000000;stroke-width:2.77287626;stroke-linecap:butt;stroke-linejoin:miter;stroke-miterlimit:4;stroke-opacity:1;stroke-dashoffset:0"
         d="m 254.42761,250.00572 15.02225,3.19909 -3.83029,17.98625 -9.02687,-4.44771 -5.99538,1.24862 3.83029,-17.98625 z"
         id="path4438"
         sodipodi:nodetypes="cccccc" />
      <path
         style="fill:#c83737;stroke:#000000;stroke-width:4.04434061;stroke-linecap:butt;stroke-linejoin:miter;stroke-miterlimit:4;stroke-opacity:1;stroke-dashoffset:0"
         d="m 388.42164,326.15062 c -1.72474,3.70252 -7.70883,10.73412 -16.77005,10.22761 -2.89376,-0.16176 -6.7817,-4.72084 -10.06072,-5.68674 -4.9666,-1.46302 -2.22708,-11.81109 -7.66349,-14.34352 -20.26449,-9.43978 -52.60637,-2.55362 -49.49654,-9.22954 3.10983,-6.6759 32.66506,-19.58763 52.92955,-10.14785 20.26449,9.43978 34.17108,22.50413 31.06125,29.18004 z"
         id="path4440"
         sodipodi:nodetypes="csssssc" />
      <path
         style="fill:none;stroke:#000000;stroke-width:5;stroke-linecap:butt;stroke-linejoin:miter;stroke-miterlimit:4;stroke-opacity:1;stroke-dasharray:none"
         d="m 340.88188,160.95228 c 0.67592,0 1.34439,0 2.0203,0 0.33672,0 0.70899,0.15059 1.01016,0 0.42591,-0.21296 0.58423,-0.79719 1.01015,-1.01015 0.30117,-0.15058 0.67343,0 1.01015,0 0.67526,0 1.34505,0 2.02031,0 0.33671,0 0.77205,0.2381 1.01015,0 0.2381,-0.23809 -0.2381,-0.77206 0,-1.01015 0.2381,-0.2381 0.67344,0 1.01015,0 0.33672,0 0.67344,0 1.01016,0 2.69374,0 5.38748,0 8.08122,0 0.33671,0 0.67343,0 1.01015,0 0.33672,0 1.01015,-0.33672 1.01015,0 0,0.33672 -1.24825,-0.2381 -1.01015,0 1.25605,1.25605 2.53986,1.01015 4.04061,1.01015 2.0203,0 4.04061,0 6.06091,0 0.33672,0 0.67344,0 1.01016,0 0.33671,0 0.70898,-0.15058 1.01015,0 0.42592,0.21296 0.67343,0.67344 1.01015,1.01015"
         id="path4442" />
      <path
         style="fill:none;stroke:#000000;stroke-width:5;stroke-linecap:butt;stroke-linejoin:miter;stroke-miterlimit:4;stroke-opacity:1;stroke-dasharray:none"
         d="m 350.98341,149.84061 c 0.67343,0 1.38142,0.21295 2.0203,0 0.45175,-0.15059 0.5584,-0.85957 1.01015,-1.01016 0.63888,-0.21296 1.34687,0 2.02031,0 0.67592,0 1.34439,0 2.0203,0 0.33672,0 0.69072,0.10648 1.01016,0 0.71428,-0.23809 1.30601,-0.77205 2.0203,-1.01015 0.31944,-0.10648 0.67344,0 1.01015,0 0.33672,0 0.67344,0 1.01016,0 2.0203,0 4.04061,0 6.06091,0 1.68359,0 3.36718,0 5.05076,0 0.33672,0 0.67344,0 1.01016,0 0.67343,0 1.38142,0.21296 2.0203,0 0.90351,-0.30117 1.09636,-1.78932 2.02031,-2.0203 0.97999,-0.245 2.0203,0 3.03045,0 1.34687,0 2.69374,0 4.04061,0 2.69374,0 5.38748,0 8.08122,0 0.33672,0 0.67344,0 1.01016,0 0.33671,0 1.01015,-0.33672 1.01015,0 0,0.33671 -1.01015,-0.33672 -1.01015,0 0,0.47619 0.79719,0.58423 1.01015,1.01015 0.21069,0.42139 -0.23517,1.78513 0,2.0203 0.23809,0.2381 0.67343,0 1.01015,0"
         id="path4444" />
      <path
         style="fill:none;stroke:#000000;stroke-width:5;stroke-linecap:butt;stroke-linejoin:miter;stroke-miterlimit:4;stroke-opacity:1;stroke-dasharray:none"
         d="m 408.5621,263.98783 c 1.24825,1.24825 0.53396,1.01016 2.02031,1.01016 0.33671,0 0.77205,-0.2381 1.01015,0 0.53239,0.53239 0.47775,1.4879 1.01015,2.0203 2.09004,2.09004 -0.0817,-3.19386 2.02031,1.01015 0.15058,0.30117 0,0.67344 0,1.01016 0,1.24397 -0.15059,1.86972 1.01015,3.03045 0.23809,0.2381 0.77206,-0.23809 1.01015,0 0.2381,0.2381 -0.23809,0.77206 0,1.01016 0.2381,0.23809 0.70898,-0.15059 1.01015,0 0.42592,0.21296 0.67344,0.67343 1.01016,1.01015 0.33671,0.33672 0.79719,0.58423 1.01015,1.01015 0.30117,0.60234 -0.30117,1.41797 0,2.02031 0.21296,0.42591 0.79719,0.58423 1.01015,1.01015 0.15059,0.30117 -0.15058,0.70898 0,1.01015 0.21296,0.42592 0.79719,0.58424 1.01015,1.01015 0.15059,0.30117 0,0.67344 0,1.01016 0,0.33671 0,0.67343 0,1.01015 0,0.33672 0,0.67343 0,1.01015 0,0.33672 0.15059,0.70899 0,1.01015 -0.21296,0.42592 -0.79719,0.58424 -1.01015,1.01016 -0.15058,0.30117 0,0.67343 0,1.01015 0,1.01015 0,2.0203 0,3.03046 0,2.35702 0,4.71404 0,7.07106 0,2.02031 0,4.04062 0,6.06092 0,0.67344 0,1.34687 0,2.02031 0,0.33671 0.18678,0.72998 0,1.01015 -2.1926,3.2889 -1.87907,0.58645 -3.03046,4.04061 -0.10648,0.31944 0,0.67343 0,1.01015 0,0.33672 0,0.67344 0,1.01015 0,0.33672 0.2381,0.77206 0,1.01016 -0.23809,0.23809 -0.77205,-0.2381 -1.01015,0 -0.23809,0.23809 0,0.67343 0,1.01015 -0.67343,0 -1.41797,-0.30117 -2.0203,0 -0.30117,0.15058 0.15058,0.70898 0,1.01015 -2.10201,4.20401 0.0697,-1.07989 -2.02031,1.01015 -0.23809,0.2381 0.2381,0.77206 0,1.01016 -0.23809,0.23809 -0.77206,-0.2381 -1.01015,0 -0.2381,0.23809 0,0.67343 0,1.01015 0,0.67343 0,1.34687 0,2.0203 0,0.33672 0.15058,0.70899 0,1.01016 -0.21296,0.42591 -0.67344,0.67343 -1.01015,1.01015"
         id="path4446" />
      <path
         style="fill:none;stroke:#000000;stroke-width:5;stroke-linecap:butt;stroke-linejoin:miter;stroke-miterlimit:4;stroke-opacity:1;stroke-dasharray:none"
         d="m 324.71944,136.70862 c -2.69374,0 0.33672,0.33672 -1.01015,-1.01015 -0.2381,-0.2381 -0.77206,0.2381 -1.01016,0 -0.47619,-0.47619 0.47619,-1.54411 0,-2.0203 -0.23809,-0.2381 -0.77205,0.23809 -1.01015,0 -0.23809,-0.2381 0,-0.67344 0,-1.01016 0,-1.01015 0,-2.0203 0,-3.03046 0,-0.67343 0.30117,-1.41797 0,-2.02031 -1.34687,-2.69374 -1.01015,3.03047 -1.01015,-1.01015 0,-0.33672 0,-0.67344 0,-1.01016 0,-0.33671 0.30117,-0.85956 0,-1.01015 -0.60234,-0.30117 -1.38143,0.21296 -2.02031,0 -0.45175,-0.15058 -0.58423,-0.79719 -1.01015,-1.01015 -0.54073,-0.27037 -1.47957,0.27037 -2.0203,0 -0.42592,-0.21296 -0.7972,-0.58424 -1.01016,-1.01015 -0.15058,-0.30117 0.30117,-0.85957 0,-1.01016 -0.60234,-0.30117 -1.34687,0 -2.0203,0 -0.33672,0 -0.67344,0 -1.01015,0 -0.33672,0 -0.70899,0.15059 -1.01016,0 -0.42591,-0.21296 -0.58423,-0.79719 -1.01015,-1.01015 -0.30117,-0.15058 -0.67343,0 -1.01015,0 -0.66483,0 -1.35547,0 -2.02031,0 -0.67343,0 -1.41796,0.30117 -2.0203,0 -0.30117,-0.15058 0.15058,-0.70898 0,-1.01015 -0.21296,-0.42592 -0.58424,-0.7972 -1.01015,-1.01015 -0.30117,-0.15059 -0.67344,0 -1.01016,0 -0.33671,0 -0.67343,0 -1.01015,0 -1.01015,0 -2.0203,0 -3.03046,0 -0.33671,0 -0.77205,0.23809 -1.01015,0 -0.2381,-0.2381 0.2381,-0.77206 0,-1.01016 -0.2381,-0.23809 -1.01015,0.33672 -1.01015,0 0,-0.33671 1.34687,0 1.01015,0 -2.0203,0 -4.04061,0 -6.06092,0"
         id="path4448" />
      <path
         style="fill:none;stroke:#000000;stroke-width:5;stroke-linecap:butt;stroke-linejoin:miter;stroke-miterlimit:4;stroke-opacity:1;stroke-dasharray:none"
         d="m 356.03417,126.60709 c 0,-1.34687 0,-2.69374 0,-4.04061 0,-0.67344 -0.30117,-1.41797 0,-2.02031 0.15058,-0.30117 0.77206,0.2381 1.01015,0 0.2381,-0.23809 -0.23809,-0.77206 0,-1.01015 0.2381,-0.2381 0.67344,0 1.01015,0 0.33672,0 0.67344,0 1.01016,0 0.33671,0 0.70898,0.15058 1.01015,0 0.42592,-0.21296 0.58423,-0.7972 1.01015,-1.01015 0.30117,-0.15059 0.67344,0 1.01015,0 0.67344,0 1.34687,0 2.02031,0 0.67343,0 1.38143,0.21295 2.0203,0 2.01016,-0.67006 0.47141,-0.94281 1.01016,-2.02031 0.68635,-1.37271 1.33395,-0.64759 2.0203,-2.0203 0.15059,-0.30117 -0.15058,-0.70899 0,-1.01016 0.21296,-0.42592 0.79719,-0.58423 1.01015,-1.01015 0.15059,-0.30117 0,-0.67343 0,-1.01015 0,-0.33672 0,-0.67344 0,-1.01015 0,-0.33672 -0.10648,-0.69072 0,-1.01016 0.2381,-0.71428 0.77206,-1.30602 1.01016,-2.0203 0.10648,-0.31944 -0.2381,-0.77206 0,-1.01016 0.23809,-0.23809 0.77205,0.2381 1.01015,0 0.23809,-0.23809 0,-0.67343 0,-1.01015 0,-1.01015 0,-2.0203 0,-3.03046 0,-0.33671 -0.33672,-1.01015 0,-1.01015 0.33672,0 0,0.67344 0,1.01015"
         id="path4450" />
      <path
         style="fill:none;stroke:#000000;stroke-width:5;stroke-linecap:butt;stroke-linejoin:miter;stroke-miterlimit:4;stroke-opacity:1;stroke-dasharray:none"
         d="m 429.77531,147.8203 c 1.01015,0 2.0203,0 3.03045,0 0.33672,0 0.77206,0.2381 1.01016,0 0.53239,-0.53239 0.67343,-1.34687 1.01015,-2.0203 0.33672,-0.67344 0.47775,-1.48791 1.01015,-2.02031 0.2381,-0.23809 0.85957,0.30117 1.01015,0 0.30117,-0.60234 -0.21296,-1.38143 0,-2.0203 -0.37756,-2.20063 1.68359,-0.33672 2.02031,-1.01015 0.30117,-0.60234 0,-1.34687 0,-2.02031 0,-0.33672 -0.15059,-0.70898 0,-1.01015 0.21296,-0.42592 0.79719,-0.58424 1.01015,-1.01015 0.15059,-0.30117 0,-0.67344 0,-1.01016 0,-1.01015 0,-2.0203 0,-3.03045 0,-0.33672 0,-0.67344 0,-1.01016 0,-0.33671 -0.15058,-0.70898 0,-1.01015 0.21296,-0.42592 0.85957,-0.5584 1.01015,-1.01015 0.145,-0.43498 -0.15038,-3.73985 0,-4.04062 0.15059,-0.30117 0.77206,0.23809 1.01016,0 0.23809,-0.2381 0,-0.67344 0,-1.01016 0,-1.68359 0,-3.36717 0,-5.05076 0,-0.33672 0,-0.67344 0,-1.01015 0,-0.33672 -0.15059,-0.70899 0,-1.01016 0.21296,-0.42592 0.79719,-0.58423 1.01015,-1.01015 0.15058,-0.30117 -0.2381,-0.77206 0,-1.01015 0.23809,-0.2381 0.77206,0.23809 1.01015,0 0.2381,-0.2381 -0.23809,-0.77206 0,-1.01016 0.2381,-0.23809 0.77206,0.2381 1.01015,0 0.2381,-0.23809 -0.33671,-1.01015 0,-1.01015 0.33672,0 0,0.67344 0,1.01015"
         id="path4452" />
      <path
         style="fill:none;stroke:#000000;stroke-width:5;stroke-linecap:butt;stroke-linejoin:miter;stroke-miterlimit:4;stroke-opacity:1;stroke-dasharray:none"
         d="m 458.05957,187.21625 c 0.63888,-0.21296 1.38143,0.21296 2.02031,0 0.71428,-0.23809 1.39383,-0.5925 2.0203,-1.01015 0.39622,-0.26414 0.58424,-0.79719 1.01016,-1.01015 0.30116,-0.15059 0.72998,0.18677 1.01015,0 0.79243,-0.52829 1.22787,-1.49202 2.0203,-2.02031 0.28017,-0.18678 0.67344,0 1.01016,0 0.33671,0 0.67343,0 1.01015,0 0.33672,0 0.70898,0.15059 1.01015,0 0.42592,-0.21296 0.58424,-0.79719 1.01015,-1.01015 0.30117,-0.15059 0.67344,0 1.01016,0 2.69374,0 5.38748,0 8.08122,0 0.67343,0 1.41796,-0.30117 2.0203,0 0.30117,0.15058 -0.23809,0.77206 0,1.01015 0.2381,0.2381 0.67344,0 1.01015,0 1.01016,0 2.02031,0 3.03046,0 0.33672,0 0.67344,0 1.01015,0 0.33672,0 0.69072,-0.10648 1.01016,0 0.67343,0.33672 1.34687,0.67344 2.0203,1.01015 0,0.33672 -0.23809,0.77206 0,1.01016 0.2381,0.23809 0.77206,-0.2381 1.01015,0 0.2381,0.23809 -0.23809,0.77205 0,1.01015 0.2381,0.2381 0.70899,-0.15058 1.01016,0 0.85183,0.42592 1.16847,1.59439 2.0203,2.0203 0.30117,0.15059 0.67344,0 1.01015,0 1.01016,0 2.02031,0 3.03046,0 0.33672,0 0.69072,-0.10647 1.01015,0 0.71429,0.2381 1.30602,0.77206 2.02031,1.01016 0.31944,0.10648 0.67343,0 1.01015,0 1.01015,0 2.02031,0 3.03046,0 0.33672,0 0.70898,0.15058 1.01015,0 0.85184,-0.42592 1.16847,-1.59439 2.02031,-2.02031 0.30117,-0.15058 0.67343,0 1.01015,0"
         id="path4454" />
      <path
         style="fill:none;stroke:#000000;stroke-width:5;stroke-linecap:butt;stroke-linejoin:miter;stroke-miterlimit:4;stroke-opacity:1;stroke-dasharray:none"
         d="m 396.44027,130.64771 c 0.33672,-0.33672 0.58423,-0.7972 1.01015,-1.01016 0.30117,-0.15058 0.70899,0.15059 1.01015,0 0.85184,-0.42591 1.16847,-1.59439 2.02031,-2.02031 0.30117,-0.15059 0.70898,0.15058 1.01015,0 0.42592,-0.21296 0.58424,-0.7972 1.01015,-1.01015 0.30117,-0.15059 0.67344,0 1.01016,0 0.33671,0 0.67343,0 1.01015,0 0.33672,0 0.77206,0.23809 1.01015,0 0.2381,-0.2381 -0.23809,-0.77206 0,-1.01016 0.2381,-0.23809 0.77206,0.2381 1.01016,0 2.09004,-2.09004 -3.19387,0.0817 1.01015,-2.0203 0.30117,-0.15059 0.77205,0.23809 1.01015,0 0.2381,-0.2381 -0.2381,-0.77206 0,-1.01015 0.2381,-0.2381 0.70898,0.15058 1.01015,0 2.23351,-1.11676 0.31347,-0.62695 1.01016,-2.02031 0.21295,-0.42592 0.85956,-0.5584 1.01015,-1.01015 0.21296,-0.63888 0,-1.34687 0,-2.02031 0,-0.33671 0,-0.67343 0,-1.01015 0,-0.33672 0,-0.67343 0,-1.01015 0,-0.33672 0.15058,-0.70899 0,-1.01015 -0.21296,-0.42592 -0.7972,-0.58424 -1.01015,-1.01016 -0.15059,-0.30117 0,-0.67343 0,-1.01015 0,-0.67434 0,-1.34596 0,-2.0203"
         id="path4456" />
      <rect
         transform="matrix(0.99785137,-0.06551828,0.06551828,0.99785137,0,0)"
         ry="17.134157"
         y="700.97614"
         x="343.97708"
         height="201.42857"
         width="45.714287"
         id="rect3720"
         style="fill:#ac9d93;fill-opacity:1;fill-rule:evenodd;stroke:#000000;stroke-width:5;stroke-miterlimit:4;stroke-opacity:1;stroke-dasharray:none" />
      <rect
         style="fill:#ac9d93;fill-opacity:1;fill-rule:evenodd;stroke:#000000;stroke-width:5;stroke-miterlimit:4;stroke-opacity:1;stroke-dasharray:none"
         id="rect3722"
         width="45.714287"
         height="201.42857"
         x="365.35568"
         y="641.59436"
         ry="17.134157"
         transform="matrix(0.99453231,0.10442932,-0.10442932,0.99453231,0,0)" />
      <path
         sodipodi:nodetypes="cccccccccccccccc"
         id="rect3703"
         d="m 317.61428,560.27028 101.83621,0 c 9.48045,0 17.11273,7.63228 17.11273,17.11273 l 17.14286,260.44249 c 0,9.48045 -19.77514,2.82702 -29.25559,2.82702 l -13.92874,-45.53919 -17.66461,35.53919 -31.42857,-195.71429 -8.45777,71.8911 -2.92053,24.82448 -3.26182,27.7255 -8.21702,69.84464 -20.95715,1.42857 c -9.48045,0 -52.82701,20.22486 -52.82701,10.74441 l 35.71429,-264.01392 c 0,-9.48045 7.63227,-17.11273 17.11272,-17.11273 z"
         style="fill:#214478;stroke:#000000;stroke-width:5.33865213;stroke-linecap:butt;stroke-linejoin:miter;stroke-miterlimit:4;stroke-opacity:1;stroke-dashoffset:0" />
      <path
         sodipodi:nodetypes="cccsccccccc"
         id="rect4529"
         d="m 324.71944,362.98278 62.62946,0 29.29442,-14.14214 c 10.32616,0 20.53688,-0.40248 26.64215,6.92437 4.81357,5.7767 -1.38834,32.41136 -1.38834,40.5528 l 0,171.72593 c 0,18.46761 -14.86742,33.33504 -33.33503,33.33504 l -83.84266,0 c -18.46761,0 -33.33503,-14.86743 -33.33503,-33.33504 l 35.35534,-158.59395 c 0,-18.4676 -20.48792,-46.46701 -2.02031,-46.46701 z"
         style="fill:#445500;stroke:#000000;stroke-width:5;stroke-linecap:butt;stroke-linejoin:miter;stroke-miterlimit:4;stroke-opacity:1;stroke-dashoffset:0" />
      <rect
         style="fill:#ac9d93;fill-opacity:1;fill-rule:evenodd;stroke:#000000;stroke-width:4.46450043;stroke-linecap:butt;stroke-linejoin:miter;stroke-miterlimit:4;stroke-opacity:1;stroke-dasharray:none;stroke-dashoffset:0"
         id="rect3643"
         width="156.16397"
         height="34.268314"
         x="-11.996518"
         y="436.08084"
         ry="17.134157"
         transform="matrix(0.98501791,-0.17245206,0.3978842,0.91743564,0,0)" />
      <rect
         transform="matrix(0.91486743,-0.40375437,0.60638611,0.79517035,0,0)"
         ry="17.134157"
         y="527.5293"
         x="-67.041672"
         height="34.268314"
         width="156.16397"
         id="rect2869"
         style="fill:#ac9d93;fill-opacity:1;fill-rule:evenodd;stroke:#000000;stroke-width:4.46450043;stroke-linecap:butt;stroke-linejoin:miter;stroke-miterlimit:4;stroke-opacity:1;stroke-dasharray:none;stroke-dashoffset:0" />
      <path
         sodipodi:nodetypes="csccssssccscc"
         id="rect4534"
         d="m 321.33005,389.95268 c 1.18856,6.40777 8.29226,16.20622 4.92044,21.18616 -3.43236,5.06937 -17.40869,5.27375 -23.93153,6.48366 l -54.62661,10.13255 c -5.90738,1.09575 -14.21702,15.07352 -18.9864,12.24143 -5.67029,-3.36704 -7.3807,-24.22929 -8.68343,-31.25252 -0.56756,-3.05988 12.676,-8.21666 10.07933,-11.20366 -2.97648,-3.42391 -21.69204,-4.63108 -19.79517,-7.32162 3.44135,-4.88124 22.36364,-7.96423 28.72695,-9.14455 l 54.6266,-10.13255 c 6.39072,-1.1854 22.33216,-10.28881 23.67176,-4.44228 2.05912,8.98691 2.78498,16.91345 3.99805,23.45334 l 1e-5,4e-5 z"
         style="fill:#445500;stroke:#000000;stroke-width:5;stroke-linecap:butt;stroke-linejoin:miter;stroke-miterlimit:4;stroke-opacity:1;stroke-dashoffset:0" />
      <path
         sodipodi:nodetypes="csccsssccsc"
         id="rect4532"
         d="m 432.17516,383.91273 c 4.05755,8.35455 6.34201,20.89628 1.08985,27.78728 -2.18474,2.86644 -8.59732,2.24904 -12.07256,3.93686 l -49.97609,24.27191 c -6.39565,3.10618 -6.9032,14.71806 -12.96014,12.18875 -5.14635,-2.14905 -16.1248,-17.73732 -18.76399,-23.17145 -2.6468,-5.44977 -11.59394,-16.50223 -7.08252,-19.80798 11.3619,-8.32544 11.68518,-8.81757 18.06521,-11.91616 l 49.97609,-24.27191 c 6.0186,-2.92305 20.21365,-13.69768 26.02077,-11.59951 5.60699,2.02587 2.88105,16.77102 5.70338,22.58221 z"
         style="fill:#445500;stroke:#000000;stroke-width:5;stroke-linecap:butt;stroke-linejoin:miter;stroke-miterlimit:4;stroke-opacity:1;stroke-dashoffset:0" />
    </g>
    <rect
       style="fill:#000000;fill-opacity:1;fill-rule:evenodd;stroke:#000000;stroke-width:5;stroke-linecap:butt;stroke-linejoin:miter;stroke-miterlimit:4;stroke-opacity:1;stroke-dasharray:none;stroke-dashoffset:0"
       id="rect3645"
       width="283.85287"
       height="280.82242"
       x="-722.98633"
       y="455.73328"
       ry="17.134157" />
  </g>
</svg>
